<?xml version="1.0" encoding="utf-8"?>
<!-- Generator: Adobe Illustrator 15.0.2, SVG Export Plug-In . SVG Version: 6.00 Build 0)  -->
<!DOCTYPE svg PUBLIC "-//W3C//DTD SVG 1.1//EN" "http://www.w3.org/Graphics/SVG/1.1/DTD/svg11.dtd">
<svg version="1.1" id="Calque_1" xmlns="http://www.w3.org/2000/svg" xmlns:xlink="http://www.w3.org/1999/xlink" x="0px" y="0px"
	 width="330px" height="250px" viewBox="0 0 330 250" enable-background="new 0 0 330 250" xml:space="preserve">
<rect fill="#EDEDED" width="330" height="250"/>
<g>
	<g>
		<g enable-background="new    ">
			<defs>
				<polygon id="SVGID_1_" enable-background="new    " points="49.091,210.026 17.887,180.001 284.269,26.205 315.473,56.231 				
					"/>
			</defs>
			<clipPath id="SVGID_2_">
				<use xlink:href="#SVGID_1_"  overflow="visible"/>
			</clipPath>
			<g clip-path="url(#SVGID_2_)">
				<g>
					<g>
						<g>
							<path fill="#878787" d="M36.352,189.995l-9.832-9.462l1.262-0.729c1.29-0.744,2.404-1.262,3.351-1.556
								c0.946-0.286,1.885-0.369,2.81-0.237c0.926,0.132,1.818,0.472,2.679,1.019c0.861,0.538,1.837,1.342,2.925,2.389
								c0.9,0.866,1.521,1.65,1.856,2.348c0.336,0.697,0.388,1.36,0.138,1.981c-0.245,0.628-0.675,1.2-1.288,1.733
								c-0.618,0.528-1.498,1.126-2.638,1.785L36.352,189.995 M27.026,175.191l-8.836,5.102l30.591,29.436l5.049-2.915
								L39.631,193.15l3.787-2.187c2.848-1.645,4.381-3.537,4.589-5.664c0.215-2.132-0.917-4.395-3.413-6.796
								C38.772,172.901,32.913,171.793,27.026,175.191"/>
							<path fill="#878787" d="M56.872,178.147l-9.833-9.461l1.255-0.725c2.106-1.217,4.072-1.757,5.883-1.624
								c1.825,0.135,3.603,1.034,5.345,2.711c1.742,1.676,2.472,3.189,2.185,4.534c-0.281,1.341-1.474,2.624-3.581,3.84
								L56.872,178.147 M45.015,164.806l-6.304,3.64l30.59,29.437l5.049-2.915l-14.2-13.664l3.78-2.182l19.289,10.725l5.002-2.888
								l-20.969-11.438c0.989-1.272,1.247-2.718,0.769-4.332c-0.484-1.619-1.633-3.296-3.457-5.051
								c-2.935-2.824-5.985-4.294-9.151-4.41C52.247,161.611,48.775,162.635,45.015,164.806"/>
							<path fill="#878787" d="M96.964,176.861c-1.769,1.021-3.453,1.292-5.051,0.793c-1.599-0.499-3.293-1.609-5.093-3.342
								l-13.281-12.78c-1.771-1.704-2.768-3.172-2.976-4.401c-0.202-1.233,0.588-2.365,2.37-3.394
								c1.789-1.033,3.456-1.32,5.001-0.862c1.552,0.454,3.209,1.54,4.98,3.244l13.282,12.78c1.8,1.732,2.819,3.232,3.068,4.511
								S98.739,175.837,96.964,176.861 M69.349,150.289c-1.769,1.021-3.072,2.115-3.897,3.275c-0.818,1.156-1.17,2.377-1.037,3.659
								c0.133,1.281,0.634,2.595,1.482,3.94c0.848,1.347,2.083,2.794,3.684,4.335l11.096,10.677
								c1.607,1.547,3.185,2.805,4.739,3.771c1.554,0.965,3.152,1.672,4.802,2.105c1.644,0.429,3.34,0.502,5.069,0.223
								c1.737-0.282,3.496-0.938,5.265-1.959c1.762-1.018,3.041-2.125,3.842-3.308c0.789-1.184,1.112-2.433,0.955-3.737
								c-0.157-1.305-0.668-2.638-1.528-4.005c-0.865-1.363-2.087-2.809-3.671-4.333l-11.096-10.677
								c-3.232-3.11-6.462-5.044-9.694-5.806S72.792,148.302,69.349,150.289"/>
							<path fill="#878787" d="M92.569,136.883c-1.485,0.857-2.606,1.784-3.378,2.787c-0.759,1.006-1.187,2.018-1.279,3.052
								c-0.085,1.03,0.128,2.14,0.641,3.329c0.506,1.184,1.218,2.356,2.123,3.518c0.911,1.157,2.057,2.395,3.43,3.716l8.722,8.394
								c1.379,1.327,2.701,2.463,3.976,3.41c1.283,0.942,2.629,1.75,4.04,2.41c1.417,0.668,2.805,1.099,4.17,1.301
								c1.372,0.198,2.8,0.148,4.289-0.154c1.503-0.3,2.986-0.878,4.471-1.735c1.735-1.002,2.98-2.09,3.729-3.26
								c0.749-1.171,1.025-2.401,0.823-3.698c-0.196-1.29-0.734-2.607-1.603-3.942c-0.882-1.337-2.105-2.764-3.688-4.287
								l-1.094-1.053l-5.042,2.911l1.094,1.053c0.753,0.725,1.387,1.377,1.9,1.953c0.513,0.577,0.989,1.212,1.416,1.892
								c0.426,0.681,0.68,1.299,0.756,1.851c0.075,0.55-0.034,1.1-0.323,1.652c-0.282,0.55-0.807,1.043-1.556,1.476
								c-0.75,0.433-1.521,0.697-2.32,0.78c-0.806,0.088-1.573,0.035-2.307-0.152c-0.729-0.191-1.502-0.51-2.296-0.951
								c-0.794-0.442-1.526-0.928-2.191-1.453c-0.658-0.529-1.359-1.142-2.089-1.845l-10.926-10.513
								c-0.842-0.811-1.522-1.507-2.041-2.089c-0.519-0.583-0.995-1.217-1.421-1.897c-0.433-0.687-0.655-1.296-0.688-1.826
								c-0.026-0.534,0.135-1.086,0.493-1.635c0.359-0.559,0.944-1.076,1.754-1.544c0.634-0.366,1.24-0.626,1.842-0.784
								c0.589-0.16,1.168-0.207,1.729-0.135c0.568,0.068,1.105,0.19,1.605,0.36c0.506,0.176,1.042,0.452,1.6,0.822
								c0.558,0.381,1.076,0.765,1.543,1.152c0.467,0.387,1.008,0.866,1.624,1.438l0.971,0.934l5.042-2.911
								c-0.451-0.434-0.796-0.756-1.026-0.956c-1.512-1.35-2.983-2.444-4.429-3.274c-1.439-0.835-2.933-1.439-4.466-1.813
								c-1.534-0.375-3.112-0.418-4.728-0.133S94.216,135.933,92.569,136.883"/>
							<polyline fill="#878787" points="124.55,118.886 119.501,121.801 132.613,134.418 123.784,139.516 110.672,126.898 
								105.624,129.813 136.214,159.25 141.263,156.335 127.063,142.671 135.893,137.574 150.092,151.237 155.141,148.322 
								124.55,118.886 							"/>
							<path fill="#878787" d="M154.617,131.804l-10.581-14.069l15.63,11.154L154.617,131.804 M140.001,109.966l-5.049,2.915
								l23.024,33.805l5.049-2.915l-5.756-8.449l6.305-3.64l9.543,6.263l5.043-2.911L140.001,109.966"/>
							<polyline fill="#878787" points="155.688,100.909 150.646,103.82 181.236,133.256 186.278,130.345 155.688,100.909 							
								"/>
							<polyline fill="#878787" points="178.753,87.593 173.704,90.507 192.621,108.71 164.875,95.605 161.088,97.791 
								191.679,127.227 196.728,124.312 176.385,104.737 205.752,119.102 209.344,117.028 178.753,87.593 							"/>
							<polyline fill="#878787" points="197.674,76.668 183.796,84.681 214.386,114.117 228.264,106.104 224.984,102.949 
								216.155,108.046 205.235,97.539 211.54,93.898 208.261,90.743 201.956,94.383 192.123,84.922 200.953,79.824 197.674,76.668 
															"/>
							<polyline fill="#878787" points="224.734,61.045 217.754,65.075 236.176,90.502 207.744,70.854 200.766,74.884 
								231.355,104.319 236.404,101.405 212.268,78.179 241.446,98.494 245.233,96.307 226.146,70.167 250.282,93.392 
								255.325,90.481 224.734,61.045 							"/>
							<polyline fill="#878787" points="243.654,50.122 229.783,58.13 260.373,87.566 274.245,79.558 270.966,76.402 262.136,81.5 
								251.216,70.992 257.527,67.348 254.248,64.192 247.937,67.836 238.104,58.375 246.934,53.277 243.654,50.122 							"/>
							<polyline fill="#878787" points="264.41,38.138 259.361,41.053 278.278,59.255 250.532,46.15 246.752,48.333 277.343,77.769 
								282.386,74.857 262.043,55.282 291.417,69.643 295.001,67.574 264.41,38.138 							"/>
							<polyline fill="#878787" points="284.572,26.498 266.914,36.692 270.808,40.438 277.112,36.799 303.81,62.488 
								308.859,59.573 282.162,33.883 288.466,30.244 284.572,26.498 							"/>
						</g>
					</g>
				</g>
			</g>
		</g>
	</g>
</g>
</svg>
