<?xml version="1.0" encoding="utf-8"?>
<!-- Generator: Adobe Illustrator 15.0.2, SVG Export Plug-In . SVG Version: 6.00 Build 0)  -->
<!DOCTYPE svg PUBLIC "-//W3C//DTD SVG 1.1//EN" "http://www.w3.org/Graphics/SVG/1.1/DTD/svg11.dtd">
<svg version="1.1" id="Calque_1" xmlns="http://www.w3.org/2000/svg" xmlns:xlink="http://www.w3.org/1999/xlink" x="0px" y="0px"
	 width="330px" height="250px" viewBox="0 0 330 250" enable-background="new 0 0 330 250" xml:space="preserve">
<rect fill="#EDEDED" width="330" height="250"/>
<g>
	<g>
		<g enable-background="new    ">
			<defs>
				<polygon id="SVGID_1_" enable-background="new    " points="95.185,217.91 18.973,144.575 113.318,90.105 189.53,163.44 				"/>
			</defs>
			<clipPath id="SVGID_2_">
				<use xlink:href="#SVGID_1_"  overflow="visible"/>
			</clipPath>
			<g clip-path="url(#SVGID_2_)">
				<g>
					<g>
						<g>
							<path fill="#878787" d="M69.258,115.544c-0.614,0.354-1.046,0.848-1.301,1.477c-2.047,4.017-2.943,8.09-2.711,12.222
								c0.227,4.126,1.034,8.259,2.421,12.39c1.381,4.135,3.092,8.286,5.12,12.461c2.035,4.172,3.844,8.355,5.432,12.532
								c1.582,4.183,2.671,8.358,3.25,12.542c0.58,4.175,0.148,8.312-1.313,12.414c-0.496,1.456-1.163,2.84-1.996,4.158
								c-0.155,0.422-0.385,0.835-0.69,1.218c-0.304,0.383-0.539,0.832-0.708,1.344c-0.286,0.588-0.284,1.172,0.013,1.748
								c0.303,0.582,0.749,1.053,1.332,1.428c0.59,0.37,1.262,0.611,2.025,0.711c0.756,0.104,1.507-0.015,2.249-0.361
								c0.231-0.084,0.448-0.185,0.651-0.302c0.497-0.287,0.906-0.673,1.229-1.152c0.441-0.678,0.929-1.247,1.445-1.717
								c0.593-0.594,1.232-1.152,1.939-1.678c0.701-0.531,1.405-1.09,2.117-1.663c1.247-0.935,2.552-1.798,3.918-2.588
								c0.237-0.137,0.476-0.271,0.716-0.403c1.629-0.896,3.336-1.736,5.126-2.519c3.582-1.572,7.31-2.807,11.191-3.707
								s7.917-1.601,12.104-2.102c4.201-0.5,8.354-0.89,12.47-1.179c4.11-0.285,8.235-0.659,12.363-1.125
								c4.022-0.567,7.938-1.361,11.742-2.388c3.316-0.893,6.364-2.139,9.136-3.739c0.402-0.231,0.799-0.472,1.188-0.72
								c3.02-1.823,5.594-4.002,7.729-6.531c2.135-2.528,3.678-5.273,4.604-8.237c0.307-1.348,0.272-2.659-0.109-3.941
								c-0.383-1.282-1.484-2.321-3.305-3.106c-1.481-0.656-2.982-0.896-4.512-0.725c-0.958,0.107-1.795,0.368-2.512,0.782
								c-0.426,0.246-0.81,0.546-1.15,0.9c-1.822,1.718-3.641,3.397-5.454,5.029c-1.403,1.264-3.01,2.418-4.821,3.463
								c-0.529,0.306-1.076,0.603-1.64,0.889c-3.298,1.742-6.915,3.074-10.817,3.995c-3.908,0.916-7.827,1.801-11.761,2.65
								s-7.796,1.737-11.585,2.674c-3.79,0.938-7.582,2.038-11.377,3.312c-5.904,2.044-11.407,4.537-16.503,7.479
								c-1.458,0.841-2.882,1.719-4.273,2.635c-1.256,0.725-2.457,1.544-3.609,2.461c0.443-2.848,0.521-5.691,0.23-8.529
								c-0.292-2.837-0.851-5.692-1.675-8.563c-0.819-2.866-1.799-5.712-2.922-8.528s-2.325-5.614-3.599-8.389
								c-1.334-2.821-2.645-5.745-3.927-8.767c-1.283-3.022-2.298-6.026-3.054-9.019c-0.75-2.987-1.085-5.971-1.014-8.937
								c0.078-2.971,0.868-5.848,2.377-8.645c0.361-0.712,0.317-1.452-0.145-2.239c-0.462-0.777-1.207-1.328-2.242-1.648
								c-1.148-0.336-2.145-0.328-2.976,0.026C69.527,115.399,69.388,115.468,69.258,115.544"/>
						</g>
					</g>
				</g>
			</g>
		</g>
	</g>
</g>
<g>
	<g>
		<g enable-background="new    ">
			<defs>
				<polygon id="SVGID_3_" enable-background="new    " points="119.875,164.767 90.852,136.838 253.823,42.747 282.847,70.674 				
					"/>
			</defs>
			<clipPath id="SVGID_4_">
				<use xlink:href="#SVGID_3_"  overflow="visible"/>
			</clipPath>
			<g clip-path="url(#SVGID_4_)">
				<g>
					<g>
						<g>
							<path fill="#878787" d="M99.904,142.016c-0.5,0.288-0.773,0.689-0.828,1.198c-0.042,0.511,0.15,0.976,0.583,1.392
								l19.086,18.366c0.438,0.422,0.995,0.677,1.662,0.768c0.674,0.088,1.264-0.01,1.764-0.298
								c0.506-0.292,0.781-0.693,0.835-1.202c0.048-0.505-0.15-0.966-0.589-1.388l-19.086-18.365
								c-0.433-0.417-0.982-0.676-1.656-0.772C101,141.626,100.41,141.724,99.904,142.016 M93.146,135.514
								c-0.628,0.362-0.962,0.861-1.029,1.494c-0.061,0.638,0.178,1.22,0.722,1.743c0.544,0.523,1.24,0.841,2.084,0.956
								c0.844,0.116,1.57-0.006,2.198-0.369c0.627-0.362,0.974-0.859,1.035-1.497c0.061-0.639-0.184-1.217-0.728-1.74
								c-0.543-0.522-1.234-0.845-2.078-0.96C94.513,135.03,93.774,135.151,93.146,135.514"/>
							<path fill="#878787" d="M129.287,125.052c-0.506,0.292-0.78,0.684-0.827,1.179c-0.031,0.189-0.018,0.389,0.05,0.62
								l7.538,20.254l-24.426-10.504c-0.283-0.106-0.533-0.169-0.765-0.206c-0.675-0.078-1.259,0.025-1.766,0.317
								s-0.78,0.693-0.828,1.198c-0.049,0.515,0.149,0.976,0.582,1.392c0.228,0.22,0.473,0.393,0.755,0.519l29.413,12.61
								c0.263,0.118,0.487,0.178,0.677,0.194c0.642,0.098,1.232-0.01,1.765-0.317c0.533-0.309,0.826-0.702,0.871-1.179
								c0.014-0.151-0.019-0.33-0.1-0.554l-9.028-24.379c-0.099-0.231-0.256-0.455-0.484-0.675
								c-0.433-0.416-0.989-0.671-1.663-0.768C130.383,124.662,129.792,124.759,129.287,125.052"/>
							<path fill="#878787" d="M147.653,114.448c-3.551,2.05-5.499,4.894-5.843,8.521l-1.754-1.687
								c-0.433-0.417-0.982-0.675-1.662-0.768c-0.668-0.092-1.258,0.006-1.764,0.298c-0.5,0.289-0.78,0.694-0.828,1.198
								c-0.042,0.51,0.15,0.976,0.583,1.392l19.086,18.366c0.438,0.422,0.995,0.677,1.662,0.768c0.668,0.092,1.264-0.01,1.764-0.298
								c0.506-0.292,0.781-0.693,0.829-1.198c0.054-0.509-0.144-0.97-0.583-1.392l-9.54-9.181c-2.204-2.12-3.177-4.438-2.943-6.967
								c0.24-2.523,1.629-4.523,4.173-5.992c1.296-0.749,2.69-1.247,4.174-1.492c0.354-0.033,0.677-0.139,0.967-0.307
								c0.506-0.292,0.78-0.693,0.829-1.198c0.042-0.51-0.15-0.976-0.583-1.392c-0.438-0.421-0.994-0.686-1.66-0.787
								c-0.417-0.048-0.813-0.035-1.177,0.031C151.351,112.727,149.442,113.415,147.653,114.448"/>
							<path fill="#878787" d="M170.213,116.12c-1.194-1.66-1.695-3.44-1.515-5.345c0.24-2.523,1.629-4.522,4.167-5.988
								s5.482-1.968,8.82-1.51c2.519,0.346,4.7,1.156,6.564,2.429L170.213,116.12 M169.686,101.728
								c-3.551,2.05-5.494,4.846-5.831,8.388c-0.33,3.539,1.04,6.789,4.114,9.748c3.069,2.953,6.949,4.754,11.629,5.4
								c4.686,0.643,8.804-0.061,12.354-2.111c3.213-1.855,5.113-4.329,5.693-7.418c0.03-0.512-0.169-0.973-0.607-1.395
								s-0.987-0.681-1.662-0.769c-0.668-0.091-1.257,0.006-1.764,0.299c-0.425,0.245-0.698,0.574-0.809,0.988
								c-0.396,2.164-1.736,3.91-4.031,5.235c-2.538,1.465-5.482,1.968-8.82,1.51c-2.519-0.346-4.707-1.152-6.558-2.424
								l20.034-11.566c0.506-0.292,0.78-0.694,0.828-1.198c0.049-0.515-0.149-0.976-0.582-1.392
								c-3.075-2.959-6.956-4.759-11.635-5.406C177.354,98.974,173.236,99.678,169.686,101.728"/>
							<path fill="#878787" d="M196.544,86.221c-3.551,2.05-5.457,4.653-5.711,7.797c-0.151,1.6,0.427,3.029,1.736,4.289
								c1.315,1.266,2.979,2.024,4.995,2.292c1.038,0.157,2.483,0.051,4.33-0.322l14.531-3.403c0.924-0.191,1.729,0,2.39,0.573
								c0.532,0.512,0.806,1.056,0.826,1.638c-0.139,2.204-1.474,4.037-4.012,5.502c-2.545,1.47-5.489,1.972-8.827,1.514
								c-0.252-0.034-0.674-0.097-1.257-0.192c-0.592-0.091-1.131,0.014-1.638,0.306c-0.5,0.289-0.786,0.688-0.834,1.192
								c-0.042,0.511,0.149,0.976,0.589,1.397c0.339,0.326,0.769,0.564,1.273,0.696c5.392,0.991,10.012,0.375,13.873-1.854
								c3.544-2.045,5.45-4.648,5.704-7.792c0.151-1.6-0.427-3.029-1.736-4.29c-1.315-1.265-2.979-2.024-4.995-2.292
								c-1.038-0.156-2.478-0.045-4.324,0.328l-14.538,3.398c-0.924,0.191-1.722-0.005-2.389-0.573
								c-0.532-0.512-0.806-1.056-0.827-1.638c0.14-2.205,1.475-4.037,4.02-5.506c2.538-1.465,5.482-1.968,8.82-1.51
								c0.258,0.04,0.679,0.103,1.258,0.192c0.591,0.091,1.137-0.008,1.643-0.3c0.506-0.292,0.78-0.693,0.828-1.198
								c0.042-0.511-0.149-0.976-0.582-1.392c-0.361-0.368-0.786-0.599-1.279-0.701C205.005,83.388,200.385,84.003,196.544,86.221"
								/>
							<path fill="#878787" d="M220.87,72.176c-3.55,2.05-5.449,4.649-5.71,7.797c-0.145,1.596,0.434,3.025,1.743,4.285
								c1.315,1.266,2.972,2.029,4.988,2.296c1.044,0.153,2.49,0.047,4.33-0.323l14.531-3.403c0.925-0.192,1.729,0,2.396,0.569
								c0.532,0.512,0.806,1.056,0.82,1.642c-0.134,2.201-1.476,4.038-4.013,5.503c-2.538,1.465-5.482,1.968-8.82,1.51
								c-0.259-0.031-0.681-0.094-1.265-0.188c-0.585-0.095-1.124,0.01-1.63,0.302c-0.506,0.292-0.786,0.688-0.834,1.192
								c-0.049,0.514,0.149,0.976,0.588,1.397c0.339,0.327,0.77,0.563,1.273,0.696c5.386,0.994,10.013,0.375,13.867-1.851
								c3.551-2.05,5.45-4.649,5.71-7.796c0.146-1.596-0.433-3.026-1.742-4.286c-1.315-1.266-2.973-2.028-4.988-2.295
								c-1.045-0.153-2.484-0.042-4.325,0.329l-14.537,3.397c-0.924,0.192-1.729,0-2.396-0.569c-0.532-0.512-0.806-1.056-0.82-1.642
								c0.133-2.201,1.475-4.037,4.013-5.502c2.537-1.465,5.482-1.968,8.82-1.51c0.265,0.036,0.686,0.099,1.264,0.188
								c0.585,0.094,1.13-0.004,1.636-0.297c0.507-0.292,0.781-0.693,0.829-1.198c0.048-0.514-0.15-0.975-0.582-1.392
								c-0.361-0.368-0.785-0.6-1.28-0.701C229.331,69.343,224.711,69.958,220.87,72.176"/>
							<path fill="#878787" d="M248.25,71.065c-1.188-1.664-1.688-3.444-1.515-5.345c0.246-2.527,1.629-4.522,4.174-5.992
								c2.538-1.465,5.481-1.968,8.819-1.51c2.513,0.35,4.701,1.156,6.564,2.43L248.25,71.065 M247.729,56.669
								c-3.551,2.05-5.493,4.846-5.83,8.388c-0.337,3.542,1.033,6.793,4.107,9.751c3.069,2.953,6.949,4.754,11.636,5.396
								c4.685,0.643,8.803-0.061,12.354-2.111c3.212-1.854,5.106-4.325,5.693-7.418c0.029-0.512-0.169-0.973-0.607-1.395
								s-0.994-0.677-1.662-0.768c-0.668-0.092-1.258,0.006-1.764,0.298c-0.426,0.246-0.699,0.575-0.809,0.989
								c-0.397,2.165-1.736,3.91-4.031,5.235c-2.545,1.469-5.482,1.968-8.827,1.514c-2.513-0.35-4.7-1.156-6.558-2.424l20.04-11.57
								c0.506-0.292,0.78-0.693,0.829-1.198c0.042-0.51-0.15-0.976-0.583-1.392c-3.074-2.958-6.955-4.759-11.641-5.402
								C255.397,53.916,251.279,54.619,247.729,56.669"/>
						</g>
					</g>
				</g>
			</g>
		</g>
	</g>
</g>
</svg>
