<?xml version="1.0" encoding="utf-8"?>
<!-- Generator: Adobe Illustrator 15.0.2, SVG Export Plug-In . SVG Version: 6.00 Build 0)  -->
<!DOCTYPE svg PUBLIC "-//W3C//DTD SVG 1.1//EN" "http://www.w3.org/Graphics/SVG/1.1/DTD/svg11.dtd">
<svg version="1.1" id="Calque_1" xmlns="http://www.w3.org/2000/svg" xmlns:xlink="http://www.w3.org/1999/xlink" x="0px" y="0px"
	 width="330px" height="250px" viewBox="0 0 330 250" enable-background="new 0 0 330 250" xml:space="preserve">
<rect fill="#EDEDED" width="330" height="250"/>
<g>
	<g>
		<g enable-background="new    ">
			<defs>
				<polygon id="SVGID_1_" enable-background="new    " points="90.065,217.967 8.214,139.206 225.079,13.999 306.93,92.761 				"/>
			</defs>
			<clipPath id="SVGID_2_">
				<use xlink:href="#SVGID_1_"  overflow="visible"/>
			</clipPath>
			<g clip-path="url(#SVGID_2_)">
				<g>
					<g>
						<g>
							<path fill="#878787" d="M40.642,120.484c1.435,5.912,9.989,16.211,18.35,16.307
								C57.158,130.235,49.175,121.785,40.642,120.484"/>
							<path fill="#878787" d="M77.111,130.134c-6.591,3.805-9.208,12.595-1.814,18.294c0.328-0.092,0.636-0.226,0.928-0.394
								c1.542-0.891,2.645-2.768,3.904-4.736c1.265-1.974,2.692-4.041,4.891-5.311c0.508-0.294,1.058-0.544,1.656-0.741
								l-0.591-2.387c-1.929-0.077-3.875,0.428-5.472,1.349c-1.139,0.658-2.1,1.527-2.752,2.549c-0.688-2.339-0.25-4.529,2.886-6.34
								c0.071-0.041,0.143-0.081,0.216-0.122c1.489-0.442,2.944-0.533,4.385-0.412l-0.892-3.606
								C81.733,128.209,79.219,128.917,77.111,130.134"/>
							<path fill="#878787" d="M54.958,157.772c-0.444,0.256-0.889,0.532-1.336,0.829c-0.508,1.445,1.623,6.426,5.195,6.36
								c-1.201-2.465-1.464-4.797,1.459-6.691c6.078-0.782,10.03,3.344,11.869,6.017c1.207,0.145,2.026-0.02,2.631-0.368
								c1.639-0.946,1.699-3.249,3.623-4.412C70.923,155.313,63.276,152.97,54.958,157.772"/>
							<path fill="#878787" d="M85.59,139.851c-8.834,5.101-8.27,20.617,3.083,16.055c-0.65-3.629-6.585-8.456-2.1-12.818
								c0.487-0.221,0.97-0.339,1.448-0.403l-0.885-3.576C86.593,139.32,86.077,139.569,85.59,139.851"/>
							<path fill="#878787" d="M72.084,150.639c-2.471,1.427,0.842,5.854,5.894,4.422c-2.986-1.876,0.955-2.792-2.038-4.664
								C74.07,150.055,72.82,150.214,72.084,150.639"/>
							<path fill="#878787" d="M80.056,159.014c-1.288,0.743-2.24,1.893-2.77,3.467c2.505,2.648,5.475,0.528,8.174,1.131
								c-0.434-1.946,1.789-3.517,1.348-5.459C84.093,157.75,81.774,158.021,80.056,159.014"/>
							<path fill="#878787" d="M70.474,165.521c-2.742,1.584-2.877,5.838,1.844,5.678c2.324-1.765,3.005-3.76,2.219-5.961
								C72.895,164.709,71.501,164.928,70.474,165.521"/>
							<path fill="#878787" d="M90.779,153.828c-1.168,0.707-1.675,1.896-0.579,3.546c0.46-0.188,0.923-0.285,1.376-0.325
								L90.779,153.828"/>
							<path fill="#878787" d="M77.655,165.417c-1.854,1.071-2.464,3.044-1.185,5.724c0.167-0.134,0.331-0.248,0.493-0.341
								c2.168-1.252,4.021,0.91,6.161,0.01c-0.075-2.099,1.771-3.938,0.588-6.189C81.168,164.314,79.056,164.608,77.655,165.417"/>
							<path fill="#878787" d="M88.451,158.383c0.97,2.015-3.143,3.326-1.354,5.453c2.215,0.279,4.449,0.293,6.125-0.134
								l-1.323-5.346C90.746,158.339,89.605,158.257,88.451,158.383"/>
							<path fill="#878787" d="M70.132,171.796c-2.191,1.266-0.989,4.183,1.488,6.826c2.243-2.196,2.479-4.671,0.698-7.424
								C71.375,171.285,70.656,171.493,70.132,171.796"/>
							<path fill="#878787" d="M74.708,172.158c1.178,2.038-0.875,3.638,0.296,5.679c2.327,0.484,4.618,0.224,6.084-0.622
								c1.782-1.029,2.348-2.923,0.287-5.396C79.14,172.058,76.982,171.529,74.708,172.158"/>
							<path fill="#878787" d="M86.109,165.576c-0.717,1.782-0.982,3.627-1.347,5.458c3.113,0.492,5.781,0.294,7.46-0.675
								c1.146-0.662,1.831-1.684,1.882-3.09l-0.615-2.483C90.965,165.685,88.682,164.108,86.109,165.576"/>
							<path fill="#878787" d="M83.773,172.774c1.519,1.878-1.63,3.119,1.167,5.177c2.24,0.471,4.43,0.212,5.865-0.617
								c1.78-1.027,2.397-2.931,0.506-5.401C88.726,172.957,86.391,171.272,83.773,172.774"/>
							<path fill="#878787" d="M94.581,169.192c-0.476,0.734-0.67,1.511,0.616,2.491L94.581,169.192"/>
							<path fill="#878787" d="M74.01,179.582c-1.052,3.685,1.911,5.943,7.069,4.1c0.862-1.551,1.018-3.197,0.469-4.942
								C78.969,179.761,76.641,178.081,74.01,179.582"/>
							<path fill="#878787" d="M84.584,179.212c-1.11,0.641-1.551,1.853-2.628,3.963c2.816,2.397,5.921,1.676,9.058,0.621
								c-1.519-1.878,1.63-3.119-1.167-5.177C87.018,178.529,85.548,178.655,84.584,179.212"/>
							<path fill="#878787" d="M95.378,172.848c-1.387,0.802-2.253,2.46-2.899,4.252c1.376,1.036,2.846,1.149,4.331,1.104
								l-1.338-5.408C95.44,172.813,95.41,172.83,95.378,172.848"/>
							<path fill="#878787" d="M75.944,185.485c-0.187,1.089,2.97,5.736,5.313,5.113c-1.519-1.877,1.63-3.119-1.174-5.173
								C78.654,185.973,77.354,185.075,75.944,185.485"/>
							<path fill="#878787" d="M92.243,179.585c1.173,2.032-0.88,3.632,0.291,5.673c0.168-0.137,0.335-0.252,0.5-0.347
								c1.943-1.122,3.626,0.49,5.49,0.214l-1.441-5.82C95.477,179.277,93.889,179.124,92.243,179.585"/>
							<path fill="#878787" d="M83.363,186.468c-1.858,1.073-2.478,2.959-0.585,5.593c1.928,0.058,3.897-0.324,5.79,0.167
								c2.634-1.935,1.526-4.382,1.452-6.688C87.427,185.23,84.945,185.554,83.363,186.468"/>
							<path fill="#878787" d="M82.66,193.299l5.32,5.119c2.52-1.536,1.518-3.549,1.348-5.459
								C87.054,193.588,84.896,193.061,82.66,193.299"/>
							<path fill="#878787" d="M100.017,193.799c1.164,2.046-0.882,3.641,0.289,5.683c0.592-0.185,1.163-0.214,1.727-0.17
								l-1.377-5.567C100.443,193.76,100.235,193.78,100.017,193.799"/>
							<path fill="#878787" d="M91.137,200.104c1.992,2.271,4.317,1.099,6.309,3.368C102.401,199.668,93.817,199.629,91.137,200.104
								"/>
							<path fill="#878787" d="M99.312,201.226c-0.124,1.84,1.928,3.165,4.092,3.625l-1.028-4.153
								C101.267,200.758,100.186,200.942,99.312,201.226"/>
							<path fill="#878787" d="M33.846,130.649c-4.664,2.692-4.935,8.417-0.971,10.69c-0.476-1.545-0.901-3.082,1.173-4.279
								c0.266-0.154,0.573-0.302,0.927-0.444c7.336-0.147,14.381,2.765,21.555,4.331c0.745,0.112,1.482,0.256,2.203,0.434
								c1.846,0.318,3.703,0.52,5.578,0.528c-0.441-7.377-2.376-14.944-0.412-21.992c0.241-0.372,0.532-0.64,0.856-0.827
								c0.954-0.551,2.197-0.407,3.303-0.18c1.1,0.225,2.067,0.527,2.478,0.29c0.208-0.12,0.273-0.379,0.141-0.856
								c-4.557-1.958-9.176-3.217-14.193-0.321c-0.827,0.478-1.664,1.068-2.515,1.787c-1.947,5.785,7.983,13.21,5.665,18.95
								c-7.583-1.57-14.664-8.499-22.316-9.336C35.97,129.663,34.813,130.091,33.846,130.649"/>
							<path fill="#878787" d="M74.644,122.473c-8.478,4.894-13.239,14.674-8.936,22.13c-2.028-1.543-4.411-2.594-6.975-3.223
								c-0.721-0.178-1.458-0.321-2.203-0.434c-7.038-1.058-15.008,0.712-20.686,3.989c-7.149,4.128-10.66,10.646-4.084,16.927
								c-1.253-6.093,1.433-10.306,6.076-12.986c8.143-4.701,22.306-4.691,31.789-1.854c-3.82-8.289,1.097-16.591,9.096-21.209
								c1.445-0.834,2.989-1.547,4.602-2.12l-0.988-3.994C79.567,120.159,76.964,121.133,74.644,122.473"/>
							<path fill="#878787" d="M45.006,148.908c-5.508,3.18-7.285,8.875,1.485,14.98c-3.596-3.831-2.53-9.902,1.587-12.278
								c1.98-1.144,4.667-1.433,7.88-0.207c-1.476-0.022-2.743,0.341-3.783,0.941c-3.928,2.267-4.644,7.92-1.303,9.015
								c-0.474-2.459,0.541-3.999,2.308-5.02c2.037-1.177,5.074-1.662,7.98-2.072c2.903-0.413,5.673-0.747,7.185-1.62
								c0.34-0.196,0.616-0.42,0.816-0.678C63.594,144.9,51.615,145.094,45.006,148.908"/>
							<path fill="#878787" d="M92.423,186.492c-1.079,4.033-1.47,8.156-1.175,12.369c2.144-0.895,3.993,1.261,6.165,0.008
								c0.163-0.095,0.329-0.208,0.496-0.344c4.387-4.944-4.082-4.582-5.197-6.352c2.141-0.899,3.992,1.262,6.171,0.003
								c0.161-0.093,0.324-0.205,0.49-0.337c0.174-0.921,0.24-1.83,0.154-2.653l-0.362-1.462
								C98.4,185.964,96.422,185.108,92.423,186.492"/>
							<polyline fill="#878787" points="80.576,112.593 82.334,119.7 83.323,123.694 84.457,128.276 85.349,131.883 86.085,134.859 
								86.676,137.246 87.137,139.107 88.021,142.684 90.779,153.828 91.576,157.049 91.899,158.356 93.222,163.702 93.49,164.786 
								94.104,167.27 94.581,169.192 95.197,171.684 95.472,172.796 96.81,178.204 97.082,179.305 98.523,185.125 99.166,187.725 
								99.528,189.187 100.655,193.744 102.033,199.312 102.375,200.697 103.403,204.851 104.467,209.148 105.442,209.09 
								81.545,112.528 80.576,112.593 							"/>
							<path fill="#878787" d="M100.062,161.543l-4.758-24.459l17.671,17.004L100.062,161.543 M95.919,135.973l-2.093,1.208
								l4.892,25.138l-0.101,0.059l0.164,0.158l2.069,10.658l1.337-0.771l-1.865-9.526l13.628-7.868l6.887,6.627l1.106-0.64
								L95.919,135.973"/>
							<polyline fill="#878787" points="128.806,116.985 127.678,117.636 152.744,141.756 110.371,127.629 108.616,128.642 
								134.642,153.685 135.769,153.033 110.726,128.936 153.056,143.053 154.831,142.028 128.806,116.985 							"/>
							<path fill="#878787" d="M164.937,124.088l-4.759-24.459l17.672,17.004L164.937,124.088 M160.8,98.513l-2.093,1.208
								l4.893,25.138l-0.108,0.062l0.164,0.158l2.069,10.659l1.343-0.775l-1.864-9.526l13.621-7.864l6.887,6.626l1.113-0.643
								L160.8,98.513"/>
							<polyline fill="#878787" points="193.687,79.526 192.552,80.181 217.618,104.301 175.252,90.169 173.49,91.187 
								199.516,116.229 200.649,115.574 175.607,91.477 217.93,105.598 219.712,104.569 193.687,79.526 							"/>
							<path fill="#878787" d="M229.817,86.629l-4.759-24.459l17.672,17.004L229.817,86.629 M225.675,61.058l-2.093,1.208
								l4.898,25.135l-0.107,0.062l0.164,0.157l2.068,10.659l1.344-0.775l-1.871-9.522l13.628-7.868l6.887,6.626l1.106-0.639
								L225.675,61.058"/>
							<path fill="#878787" d="M246.244,48.796c-2.228,1.286-3.705,2.794-4.452,4.522c-1.026,2.339-0.426,4.683,1.809,7.02
								c1.52,1.598,3.671,2.534,6.449,2.829c2.774,0.279,6.052-0.11,9.846-1.157c7.044-1.952,11.903-1.526,14.572,1.261
								c1.459,1.507,1.939,3.237,1.446,5.195c-0.479,1.977-1.854,3.623-4.13,4.936c-0.168,0.097-0.342,0.192-0.519,0.286
								c-1.745,0.899-3.645,1.43-5.709,1.595c-2.346,0.184-4.442-0.181-6.262-1.101l-0.701,0.936
								c2.089,1.044,4.472,1.477,7.13,1.292c2.357-0.164,4.507-0.756,6.46-1.776c0.194-0.094,0.388-0.188,0.563-0.29
								c2.544-1.469,4.079-3.318,4.622-5.549c0.557-2.292-0.015-4.338-1.726-6.141c-1.55-1.615-3.718-2.569-6.497-2.864
								s-6.069,0.084-9.863,1.141c-7.037,1.948-11.879,1.539-14.521-1.21c-1.903-1.988-2.43-3.97-1.571-5.96
								c0.692-1.545,2.068-2.913,4.134-4.104c0.207-0.119,0.421-0.237,0.642-0.353c2.857-1.479,5.838-1.967,8.942-1.455l0.169-1.125
								c-3.523-0.575-6.867-0.03-10.023,1.63C246.774,48.499,246.504,48.646,246.244,48.796"/>
							<path fill="#878787" d="M106.654,177.187l0.334,0.104l0.267,0.07l0.158,0.089c0.023,0.022,0.094,0.081,0.213,0.174
								c0.119,0.094,0.237,0.196,0.354,0.309l0.456,0.439l-1.109-1.16l1.252-0.885c-0.12,0.083-0.242,0.16-0.367,0.232
								s-0.252,0.139-0.383,0.2c-0.2,0.099-0.408,0.199-0.621,0.286C106.99,177.137,106.807,177.188,106.654,177.187
								 M106.789,175.291c0.103-0.005,0.213-0.023,0.331-0.056c0.088-0.02,0.164-0.048,0.227-0.084
								c0.063-0.037,0.114-0.082,0.151-0.135L106.789,175.291 M106.219,173.9l-0.344,0.199c-0.095,0.055-0.163,0.103-0.205,0.146
								l-0.011,0.052c0.094-0.021,0.182-0.054,0.262-0.1c0.069-0.04,0.133-0.091,0.189-0.152L106.219,173.9 M104.334,174.822
								c-0.021,0.013-0.041,0.027-0.058,0.047c-0.029,0.035,0.037,0.087,0.189,0.161c0.158,0.079,0.26,0.146,0.318,0.202
								c0.065,0.062,0.154,0.127,0.25,0.189c0.096,0.062,0.147,0.131,0.165,0.21c0.022,0.104,0.035,0.169,0.051,0.205l0.029,0.091
								c0.042-0.042,0.081-0.109,0.115-0.201l0.027-0.224l-0.034-0.25c-0.121-0.137-0.312-0.27-0.569-0.382
								C104.604,174.777,104.441,174.762,104.334,174.822 M107.79,171.536l0.194-0.031l0.243-0.006
								c0.083,0.007,0.185,0.002,0.32-0.014c0.302-0.021,0.629,0.033,0.986,0.169c0.351,0.13,0.629,0.294,0.833,0.49
								c0.24,0.169,0.407,0.423,0.521,0.762c0.108,0.343,0.124,0.64,0.062,0.891c-0.05,0.119-0.12,0.249-0.21,0.401
								c-0.085,0.156-0.195,0.301-0.329,0.441c-0.123,0.152-0.248,0.323-0.38,0.508c0.376-0.262,0.657-0.605,0.845-1.037
								c0.182-0.438,0.253-0.785,0.203-1.062c-0.035-0.304-0.206-0.592-0.506-0.86c-0.3-0.268-0.644-0.474-1.026-0.613
								c-0.187-0.055-0.38-0.096-0.582-0.113c-0.203-0.019-0.394-0.025-0.566-0.024C108.219,171.45,108.012,171.479,107.79,171.536
								 M105.804,176.481c-0.136,0.079-0.271,0.109-0.4,0.095c-0.1-0.096-0.192-0.194-0.267-0.287
								c-0.062-0.08-0.125-0.161-0.181-0.237c-0.057-0.075-0.109-0.136-0.162-0.186c-0.035-0.034-0.111-0.098-0.236-0.197
								c-0.125-0.099-0.237-0.196-0.354-0.299c-0.118-0.104-0.23-0.2-0.33-0.286c-0.106-0.092-0.17-0.153-0.175-0.179l0.051-0.128
								l0.146-0.057c0.081-0.047,0.214-0.106,0.387-0.179c0.172-0.073,0.312-0.136,0.42-0.198l1.053-0.607
								c0.054-0.031,0.143-0.092,0.291-0.178c0.143-0.092,0.298-0.181,0.453-0.271c0.155-0.09,0.311-0.18,0.479-0.268
								c0.162-0.093,0.308-0.15,0.431-0.177c0.248-0.053,0.498-0.071,0.765-0.055c0.267,0.018,0.546,0.162,0.838,0.443
								c0.135,0.13,0.189,0.286,0.161,0.456c-0.035,0.164-0.083,0.336-0.169,0.503c-0.08,0.172-0.184,0.322-0.305,0.455
								c-0.121,0.133-0.219,0.216-0.286,0.255c-0.081,0.046-0.223,0.128-0.432,0.249c-0.209,0.121-0.424,0.236-0.663,0.338
								c-0.257,0.148-0.533,0.299-0.822,0.457l-0.171,0.116c-0.017,0.046-0.059,0.089-0.133,0.132
								c-0.068,0.048-0.13,0.093-0.178,0.129C105.943,176.388,105.874,176.441,105.804,176.481 M105.487,172.739
								c-0.122,0.07-0.331,0.19-0.635,0.366c-0.303,0.176-0.627,0.362-0.979,0.565c-0.351,0.202-0.662,0.382-0.938,0.542
								c-0.276,0.159-0.434,0.268-0.489,0.318c-0.09,0.079-0.144,0.173-0.154,0.277c-0.01,0.105,0.021,0.187,0.085,0.249
								c0.023,0.021,0.068,0.086,0.147,0.193c0.08,0.107,0.176,0.231,0.284,0.366c0.114,0.142,0.229,0.273,0.351,0.4
								c0.127,0.134,0.256,0.257,0.379,0.376c0.105,0.101,0.246,0.236,0.416,0.39s0.342,0.288,0.516,0.413s0.334,0.238,0.491,0.338
								c0.163,0.104,0.258,0.165,0.3,0.204c0.058,0.057,0.125,0.152,0.214,0.291c0.095,0.143,0.196,0.292,0.314,0.457
								c0.119,0.166,0.236,0.331,0.349,0.492c0.112,0.159,0.186,0.271,0.217,0.343c0.08,0.16,0.222,0.276,0.432,0.354
								c0.215,0.082,0.542,0.074,0.979-0.025c0.217-0.039,0.375-0.088,0.474-0.145c0.088-0.052,0.13-0.109,0.124-0.174
								c-0.006-0.131-0.027-0.244-0.052-0.33c-0.059-0.056-0.155-0.107-0.291-0.155c-0.13-0.042-0.241-0.076-0.323-0.093
								c-0.083,0.003-0.207-0.043-0.37-0.128c-0.165-0.086-0.303-0.177-0.414-0.283c-0.07-0.067-0.164-0.158-0.275-0.265
								c-0.117-0.112-0.221-0.233-0.321-0.382c-0.14-0.135-0.285-0.284-0.422-0.458c0.046-0.018,0.125-0.046,0.232-0.089
								c0.071-0.015,0.15-0.042,0.243-0.077s0.18-0.077,0.261-0.124c0.137-0.034,0.243-0.077,0.317-0.12
								c0.075-0.043,0.178-0.12,0.311-0.242c0.021-0.019,0.074-0.053,0.159-0.102c0.138-0.079,0.357-0.198,0.656-0.36
								c0.102-0.053,0.203-0.108,0.303-0.166c0.374-0.216,0.733-0.464,1.072-0.745c0.436-0.35,0.766-0.739,1.004-1.164
								c0.238-0.426,0.138-0.845-0.294-1.261c-0.427-0.411-0.895-0.663-1.391-0.745c-0.496-0.083-0.962-0.084-1.404,0
								c-0.447,0.078-0.835,0.194-1.168,0.351C105.863,172.55,105.622,172.661,105.487,172.739"/>
							<path fill="#878787" d="M129.749,166.238l0.159,0.277l0.076,0.208l-0.026,0.204c-0.086,0.104-0.15,0.168-0.183,0.187
								l-0.073,0.097c0.004,0.027,0.026,0.031,0.062,0.011c0.028-0.017,0.065-0.048,0.111-0.094
								c0.105-0.097,0.163-0.237,0.167-0.421c0.001-0.145-0.045-0.261-0.145-0.357L129.749,166.238 M120.762,166.413l0.048,0.171
								l0.049,0.079l0.357-0.062l1.101-0.582c-0.181,0.096-0.36,0.172-0.538,0.229c-0.132,0.04-0.27,0.084-0.401,0.134
								c-0.146,0.047-0.255,0.065-0.325,0.062l-0.215-0.021L120.762,166.413 M120.135,165.83c-0.088,0.051-0.116,0.086-0.105,0.097
								c-0.025,0.06,0.023,0.096,0.156,0.108c0.127,0.008,0.214,0.029,0.249,0.063c0.029,0.028,0.104,0.038,0.232,0.037l0.059-0.007
								l-0.263-0.065c-0.182-0.029-0.24-0.086-0.187-0.18c0.069-0.058,0.199-0.142,0.388-0.25l0.276-0.16l-0.485,0.208
								C120.335,165.733,120.222,165.78,120.135,165.83 M121.765,164.422c0.149-0.087,0.25-0.156,0.296-0.208l0.095-0.127
								c0.049-0.037,0.138-0.097,0.267-0.18c0.263-0.152,0.593-0.271,0.984-0.353c0.215-0.043,0.425-0.038,0.63,0.014
								c0.211,0.058,0.395,0.142,0.551,0.25c0.188,0.098,0.281,0.25,0.281,0.457c0.006,0.214-0.045,0.414-0.146,0.607
								c-0.088,0.186-0.253,0.37-0.506,0.553c-0.191,0.146-0.405,0.283-0.64,0.418c-0.067,0.039-0.138,0.078-0.209,0.117
								c-0.135,0.077-0.308,0.16-0.527,0.25c-0.219,0.091-0.425,0.184-0.613,0.273c-0.193,0.084-0.354,0.159-0.5,0.216
								c-0.14,0.063-0.226,0.104-0.267,0.128c-0.027,0.016-0.125,0.108-0.288,0.283c-0.094,0.094-0.175,0.16-0.245,0.201
								c-0.057,0.032-0.107,0.048-0.149,0.044c-0.083,0.003-0.147-0.059-0.187-0.181c-0.04-0.12-0.062-0.215-0.057-0.272
								l-0.053-0.123c-0.038-0.006-0.104-0.048-0.187-0.107c-0.035-0.034-0.107-0.083-0.203-0.144
								c-0.097-0.062-0.192-0.133-0.287-0.203c-0.095-0.071-0.185-0.137-0.263-0.19c-0.084-0.06-0.125-0.09-0.132-0.096
								c-0.082-0.079-0.126-0.143-0.135-0.192c0.014-0.039,0.056-0.078,0.127-0.119c0.07-0.041,0.17-0.083,0.299-0.126
								c0.091-0.02,0.159-0.04,0.202-0.065c0.015-0.008,0.027-0.018,0.036-0.027c0.036-0.038,0.124-0.099,0.259-0.177
								c0.108-0.062,0.217-0.134,0.334-0.22c0.116-0.085,0.232-0.161,0.354-0.23c0.108-0.062,0.316-0.174,0.618-0.33
								C121.604,164.512,121.69,164.464,121.765,164.422 M122.076,163.017c-0.013,0.008-0.047,0.037-0.101,0.086
								c-0.017,0.046-0.16,0.147-0.417,0.305s-0.535,0.317-0.818,0.48c-0.291,0.168-0.587,0.34-0.885,0.521
								c-0.304,0.175-0.501,0.298-0.609,0.36c-0.243,0.14-0.533,0.308-0.857,0.494c-0.331,0.191-0.52,0.311-0.563,0.353
								c-0.066,0.102-0.047,0.234,0.064,0.404s0.225,0.311,0.331,0.412c0.053,0.051,0.222,0.214,0.509,0.489
								c0.286,0.275,0.603,0.569,0.944,0.877s0.651,0.596,0.933,0.866c0.28,0.27,0.444,0.427,0.485,0.467
								c0.041,0.039,0.128,0.134,0.266,0.287c0.139,0.154,0.295,0.315,0.47,0.484c0.176,0.169,0.353,0.328,0.524,0.472
								c0.171,0.145,0.316,0.231,0.428,0.257c0.188,0.035,0.288,0.059,0.294,0.064c0.011,0.011,0.11-0.019,0.302-0.084
								c0.038-0.017,0.074-0.034,0.108-0.054c0.07-0.041,0.131-0.09,0.184-0.146c0.049-0.002,0.097-0.004,0.143-0.007
								c0.193-0.029,0.333-0.067,0.417-0.117c0.054-0.031,0.086-0.066,0.095-0.106c0.007-0.076-0.015-0.181-0.065-0.322
								c-0.044-0.137-0.112-0.286-0.213-0.444c-0.1-0.158-0.194-0.312-0.293-0.47s-0.196-0.282-0.301-0.384
								c-0.121-0.074-0.215-0.155-0.278-0.235c-0.063-0.081-0.12-0.146-0.178-0.203c-0.064-0.062-0.103-0.13-0.115-0.204
								l0.228-0.051c0.212-0.055,0.371-0.11,0.474-0.17c0.021-0.013,0.04-0.024,0.056-0.037c0.128-0.083,0.114-0.129-0.051-0.132
								c-0.171-0.01-0.309,0.024-0.417,0.087c-0.148,0.086-0.307,0.142-0.47,0.182c-0.17,0.034-0.333,0.075-0.497,0.125
								c-0.03,0.009-0.054,0.02-0.073,0.03c-0.064,0.037-0.065,0.084-0.001,0.138c0.083,0.069,0.148,0.122,0.183,0.155
								c0.023,0.022,0.101,0.087,0.243,0.192c0.144,0.107,0.304,0.23,0.482,0.37c0.178,0.141,0.351,0.266,0.519,0.385
								s0.274,0.202,0.321,0.247c0.125,0.099,0.207,0.178,0.246,0.227c0.046,0.055,0.058,0.139,0.021,0.249
								c-0.044,0.124-0.063,0.188-0.057,0.194c0.011,0.012-0.029,0.035-0.11,0.082c-0.056,0.032-0.131,0.066-0.223,0.104
								c0.006-0.01,0.013-0.021,0.019-0.031c0.091-0.151,0.104-0.285,0.031-0.396c-0.074-0.092-0.227-0.166-0.451-0.226
								c-0.224-0.06-0.359-0.117-0.417-0.174c-0.046-0.044-0.104-0.11-0.172-0.206c-0.067-0.096-0.141-0.198-0.226-0.301
								c-0.086-0.104-0.16-0.196-0.229-0.282c-0.062-0.081-0.114-0.142-0.149-0.176c-0.103-0.057-0.217-0.136-0.335-0.229
								c-0.125-0.099-0.161-0.186-0.121-0.271c0.063-0.063,0.268-0.199,0.625-0.406c0.358-0.206,0.597-0.371,0.729-0.493
								c0.191-0.128,0.351-0.266,0.473-0.408c0.057-0.062,0.128-0.119,0.215-0.169c0.098-0.057,0.214-0.104,0.35-0.14
								c0.125-0.025,0.314-0.009,0.558,0.038c0.25,0.054,0.518,0.125,0.804,0.202c0.292,0.084,0.565,0.16,0.845,0.242
								c0.273,0.075,0.484,0.133,0.64,0.179c0.167,0.057,0.359,0.116,0.576,0.181c0.223,0.069,0.448,0.119,0.681,0.155
								c0.232,0.037,0.442,0.052,0.64,0.045c0.127-0.004,0.23-0.031,0.311-0.078c0.045-0.025,0.083-0.058,0.114-0.095
								c0.192-0.211,0.271-0.363,0.247-0.448c-0.03-0.092-0.131-0.178-0.289-0.247c-0.062-0.019-0.201-0.038-0.41-0.062
								c-0.202-0.019-0.436-0.046-0.695-0.066c-0.259-0.021-0.525-0.048-0.777-0.072c-0.246-0.029-0.466-0.074-0.644-0.143
								c-0.673-0.231-1.036-0.373-1.095-0.43l-0.109-0.062l0-0.072c-0.01-0.031,0.052-0.138,0.166-0.329
								c0.119-0.187,0.21-0.401,0.272-0.663c0.069-0.256,0.112-0.505,0.123-0.754c0.011-0.25-0.073-0.444-0.257-0.58
								c-0.324-0.291-0.696-0.463-1.124-0.531c-0.427-0.067-0.802-0.086-1.125-0.043c-0.314,0.01-0.565,0.038-0.768,0.083
								c-0.202,0.044-0.379,0.102-0.521,0.175c-0.137,0.034-0.201,0.035-0.18,0.014
								C122.084,163.016,122.083,163.013,122.076,163.017 M122.105,162.614c0.457-0.102,0.892-0.183,1.299-0.247
								c0.362-0.047,0.721-0.064,1.078-0.063c0.357,0.001,0.651,0.064,0.888,0.189c0.449,0.244,0.808,0.559,1.072,0.938
								c0.271,0.375,0.329,0.701,0.182,0.976c-0.146,0.255-0.269,0.479-0.352,0.68c-0.082,0.191-0.118,0.302-0.089,0.33
								s0.165,0.076,0.407,0.143c0.237,0.062,0.524,0.12,0.858,0.171c0.357,0.073,0.764,0.153,1.222,0.24
								c-0.392-0.106-0.733-0.217-1.016-0.323c-0.28-0.081-0.526-0.173-0.728-0.263c-0.202-0.091-0.311-0.154-0.338-0.201
								c-0.004-0.025,0.019-0.128,0.073-0.304c0.062-0.17,0.105-0.367,0.139-0.594c0.041-0.221,0.03-0.449-0.024-0.678
								c-0.055-0.229-0.183-0.426-0.372-0.587c-0.222-0.151-0.418-0.298-0.591-0.434c-0.172-0.135-0.405-0.233-0.693-0.293
								c-0.293-0.063-0.669-0.072-1.139-0.025S122.888,162.432,122.105,162.614"/>
							<path fill="#878787" d="M142.869,160.054c-0.029,0.024-0.057,0.048-0.086,0.072
								C142.812,160.103,142.84,160.078,142.869,160.054 M145.399,155.213l-0.01,0.114l0.107,0.072l0.174-0.02L145.399,155.213
								 M137.242,156.062c-0.144,0.173-0.269,0.354-0.371,0.547c-0.094,0.18-0.164,0.372-0.203,0.584s-0.021,0.427,0.042,0.633
								c0.149,0.436,0.453,0.801,0.922,1.105c0.475,0.312,0.909,0.511,1.319,0.615c0.213,0.039,0.448,0.058,0.686,0.036
								c0.244-0.014,0.47-0.046,0.68-0.104c0.216-0.052,0.4-0.113,0.559-0.169c0.093-0.032,0.162-0.063,0.207-0.089
								c0.032-0.019,0.052-0.035,0.061-0.048c0.005-0.058-0.094-0.081-0.306-0.066s-0.437,0.027-0.68,0.042
								c-0.116,0.013-0.258,0.031-0.425,0.048c-0.167,0.016-0.353,0.014-0.555-0.014c-0.213-0.029-0.443-0.095-0.695-0.201
								c-0.251-0.107-0.521-0.284-0.815-0.546c-0.331-0.214-0.537-0.465-0.625-0.747c-0.094-0.287-0.114-0.546-0.065-0.79
								C137.03,156.616,137.114,156.334,137.242,156.062 M142.023,159.053c-0.324,0.187-0.716,0.35-1.177,0.498
								c-0.46,0.15-0.946,0.232-1.446,0.251c-0.511,0.017-1.022-0.049-1.524-0.199c-0.496-0.155-0.933-0.451-1.301-0.888
								c-0.393-0.421-0.571-0.841-0.518-1.258s0.189-0.794,0.406-1.126c0.224-0.336,0.48-0.619,0.776-0.844
								c0.221-0.169,0.385-0.282,0.492-0.344c0.035-0.021,0.064-0.035,0.088-0.044c0.401-0.196,0.814-0.309,1.238-0.347
								c0.425-0.038,0.839-0.024,1.234,0.044c0.388,0.072,0.754,0.186,1.096,0.348c0.342,0.163,0.624,0.352,0.852,0.571
								c0.222,0.213,0.408,0.475,0.544,0.783c0.136,0.308,0.196,0.625,0.185,0.937c-0.018,0.316-0.097,0.624-0.252,0.911
								C142.566,158.64,142.334,158.873,142.023,159.053 M137.53,154.143c-0.064,0.037-0.026,0.072,0.114,0.104
								c0.023,0.022-0.107,0.115-0.397,0.283c-0.29,0.167-0.63,0.391-1.01,0.681c-0.384,0.285-0.727,0.609-1.048,0.966
								c-0.321,0.356-0.463,0.718-0.447,1.087c-0.019,0.397,0.069,0.814,0.282,1.259s0.526,0.849,0.932,1.208
								c0.406,0.359,0.903,0.64,1.483,0.845c0.575,0.2,1.238,0.266,1.978,0.199c0.768-0.093,1.454-0.254,2.062-0.479
								c0.401-0.152,0.762-0.319,1.079-0.502c0.155-0.089,0.298-0.183,0.431-0.28c0.405-0.296,0.702-0.612,0.894-0.947
								c0.184-0.332,0.284-0.642,0.292-0.925c-0.025-0.273-0.086-0.571-0.183-0.894c-0.097-0.321-0.228-0.624-0.398-0.913
								c-0.17-0.288-0.382-0.544-0.63-0.762c-0.253-0.223-0.51-0.397-0.784-0.536c-1.119-0.453-2.197-0.648-3.235-0.599
								c-0.494,0.024-0.887,0.071-1.187,0.137C137.644,154.098,137.568,154.121,137.53,154.143 M136.649,154.1l0.878-0.309
								c0.046-0.019,0.223-0.057,0.535-0.119c0.318-0.059,0.663-0.122,1.05-0.175s0.774-0.087,1.164-0.096
								c0.384-0.015,0.706,0.024,0.966,0.108c0.266,0.089,0.536,0.203,0.823,0.344c0.286,0.141,0.571,0.301,0.854,0.479
								c0.277,0.173,0.535,0.348,0.772,0.534c0.232,0.182,0.406,0.369,0.509,0.553c0.245,0.381,0.407,0.745,0.508,1.102
								c0.106,0.361,0.036,0.835-0.206,1.434c-0.138,0.304-0.298,0.586-0.489,0.849c-0.191,0.264-0.378,0.488-0.562,0.686
								c-0.198,0.208-0.389,0.397-0.58,0.564c0.359-0.305,0.683-0.617,0.979-0.93c0.264-0.287,0.504-0.606,0.724-0.967
								c0.225-0.355,0.334-0.706,0.348-1.047s-0.063-0.675-0.211-0.993c-0.154-0.325-0.324-0.624-0.516-0.892
								c-0.197-0.272-0.399-0.498-0.6-0.68c-0.205-0.188-0.358-0.324-0.476-0.418c-0.111-0.044-0.307-0.129-0.577-0.243
								c-0.276-0.12-0.598-0.231-0.964-0.334c-0.372-0.109-0.774-0.184-1.196-0.237c-0.429-0.049-0.844-0.043-1.239,0.014
								c-0.397,0.086-0.755,0.166-1.056,0.241c-0.301,0.074-0.557,0.15-0.775,0.23C137.059,153.891,136.838,153.99,136.649,154.1"/>
							<path fill="#878787" d="M158.992,144.691c0.424,0.305,0.802,0.627,1.122,0.955c0.257,0.311,0.48,0.649,0.676,1.005
								c0.189,0.358,0.236,0.736,0.137,1.118c-0.197,0.734-0.475,1.31-0.832,1.704c-0.35,0.391-0.63,0.66-0.829,0.803
								c-0.155,0.152-0.368,0.311-0.638,0.467l-0.466,0.269c0.207-0.092,0.412-0.196,0.613-0.312
								c0.202-0.116,0.401-0.245,0.595-0.385c0.329-0.225,0.647-0.5,0.948-0.834c0.306-0.33,0.514-0.711,0.625-1.135
								c0.234-0.855,0.143-1.577-0.272-2.174C160.255,145.574,159.701,145.083,158.992,144.691 M153.125,146.757
								c-0.162,0.094-0.303,0.176-0.42,0.261c-0.123,0.08-0.192,0.147-0.204,0.199c0.584,0.562,1.125,1.051,1.633,1.478
								c0.405,0.369,0.781,0.71,1.115,1.021c0.334,0.311,0.512,0.46,0.539,0.445c0-0.001,0.001-0.001,0.002-0.002
								c0.026-0.015-0.053-0.132-0.25-0.351c-0.202-0.226-0.438-0.484-0.705-0.772c-0.267-0.287-0.528-0.56-0.784-0.816
								c-0.256-0.257-0.419-0.414-0.484-0.477c-0.058-0.056-0.128-0.123-0.21-0.202c-0.088-0.084-0.156-0.171-0.205-0.26
								c-0.099-0.096-0.18-0.184-0.255-0.276l0.873-0.594C153.529,146.533,153.313,146.648,153.125,146.757 M156.336,150.837
								c-0.036,0.021-0.077,0.035-0.126,0.042c-0.162,0.031-0.279,0.054-0.35,0.059c-0.09,0.007-0.13-0.042-0.133-0.148l-0.004-0.16
								c0.016-0.026-0.038-0.067-0.166-0.129c-0.096-0.07-0.252-0.159-0.479-0.263s-0.383-0.202-0.47-0.286
								c-0.036-0.034-0.183-0.165-0.441-0.395c-0.259-0.228-0.543-0.47-0.855-0.729c-0.32-0.266-0.603-0.507-0.85-0.733
								c-0.246-0.227-0.404-0.379-0.474-0.446l-0.183-0.155l-0.176-0.159l-0.199-0.191c0.262-0.07,0.506-0.147,0.724-0.229
								c0.263-0.098,0.475-0.192,0.633-0.283c0.105-0.062,0.188-0.12,0.246-0.18c0.056-0.051,0.173-0.146,0.359-0.288
								c0.186-0.144,0.404-0.287,0.646-0.428c0.236-0.136,0.497-0.25,0.772-0.338c0.271-0.093,0.55-0.146,0.833-0.165
								c0.241,0.023,0.561,0.082,0.979,0.183c0.418,0.1,0.825,0.243,1.216,0.432c0.384,0.183,0.718,0.431,1.008,0.741
								c0.289,0.31,0.445,0.678,0.457,1.104c0.01,0.426-0.056,0.778-0.197,1.058c-0.136,0.285-0.297,0.505-0.477,0.663
								c-0.125,0.109-0.249,0.2-0.374,0.272c-0.057,0.033-0.113,0.062-0.171,0.087c-0.186,0.08-0.319,0.14-0.412,0.175
								c-0.094,0.055-0.215,0.115-0.355,0.178c-0.134,0.068-0.261,0.134-0.383,0.203c-0.135,0.078-0.289,0.158-0.457,0.246
								l-0.017,0.109C156.436,150.752,156.395,150.803,156.336,150.837 M153.246,145.211c-0.209,0.121-0.357,0.206-0.447,0.267
								c-0.1,0.101-0.284,0.232-0.555,0.389c-0.072,0.042-0.149,0.086-0.233,0.13c-0.404,0.215-0.7,0.377-0.882,0.482
								c-0.189,0.108-0.354,0.24-0.49,0.391c-0.136,0.15-0.168,0.285-0.109,0.404l0.112,0.171l0.1,0.157l0.123,0.118
								c0.111,0.106,0.204,0.207,0.279,0.289c0.075,0.083,0.171,0.279,0.276,0.588c0.089,0.128,0.263,0.315,0.54,0.562
								c0.263,0.253,0.56,0.496,0.875,0.737c0.321,0.246,0.6,0.463,0.856,0.657c0.25,0.188,0.399,0.301,0.435,0.335
								c0.064,0.062,0.193,0.176,0.4,0.344c0.202,0.163,0.35,0.285,0.437,0.369c0.047,0.045,0.119,0.094,0.217,0.136
								c0.093,0.037,0.246,0.038,0.454-0.001c0.214-0.033,0.509-0.122,0.893-0.263c0.377-0.146,0.873-0.387,1.48-0.737
								c1.127-0.651,1.813-1.29,2.032-1.911c0.231-0.62,0.278-1.25,0.142-1.9c-0.066-0.312-0.266-0.62-0.614-0.923
								c-0.347-0.304-0.756-0.572-1.207-0.798c-0.451-0.227-0.893-0.412-1.332-0.555c-0.445-0.147-0.808-0.217-1.109-0.215
								c-0.306-0.003-0.622,0.036-0.943,0.122c-0.327,0.081-0.643,0.182-0.954,0.298
								C153.715,144.977,153.461,145.096,153.246,145.211"/>
							<path fill="#878787" d="M173.903,133.734l1.672,1.609c0.216,0.208,0.426,0.41,0.637,0.612
								c0.205,0.197,0.385,0.382,0.535,0.547s0.283,0.304,0.394,0.42c0.11,0.117,0.168,0.183,0.186,0.199
								c0.013,0.074,0.061,0.173,0.145,0.295s0.146,0.275,0.179,0.463c0.039,0.193,0.026,0.399-0.021,0.634
								c-0.054,0.229-0.186,0.477-0.396,0.752c-0.239,0.29-0.479,0.546-0.726,0.777c-0.251,0.227-0.468,0.433-0.649,0.601
								c-0.204,0.199-0.42,0.387-0.647,0.562c0.538-0.355,0.988-0.723,1.374-1.099c0.345-0.334,0.653-0.702,0.922-1.108
								c0.274-0.401,0.37-0.808,0.302-1.228c-0.106-0.29-0.371-0.658-0.801-1.113c-0.429-0.454-0.864-0.895-1.31-1.322
								C175.165,134.824,174.564,134.288,173.903,133.734 M167.774,136.66c0.018,0.018,0.17,0.154,0.458,0.41
								c0.289,0.258,0.624,0.559,0.994,0.895c0.37,0.335,0.709,0.661,1.022,0.983c0.314,0.323,0.528,0.56,0.642,0.71
								c0.207,0.305,0.414,0.481,0.619,0.534c0.116,0.05,0.21,0.067,0.282,0.053c-0.24-0.23-0.461-0.453-0.664-0.669
								c-0.176-0.17-0.356-0.344-0.536-0.537c-0.174-0.188-0.307-0.327-0.406-0.422c-0.105-0.102-0.281-0.262-0.528-0.479
								c-0.242-0.211-0.495-0.434-0.779-0.666C168.525,137.217,168.155,136.944,167.774,136.66 M172.37,133.621
								c-0.095,0.055-0.194,0.156-0.291,0.302c-0.097,0.146-0.143,0.299-0.151,0.457c-0.002,0.082,0.11,0.242,0.343,0.485
								c0.232,0.245,0.507,0.509,0.831,0.79c0.33,0.286,0.648,0.562,0.967,0.836c0.318,0.275,0.534,0.494,0.628,0.646
								c0.164,0.157,0.332,0.33,0.513,0.514c0.186,0.189,0.321,0.382,0.409,0.592c0.083,0.204,0.087,0.437-0.007,0.679
								c-0.087,0.249-0.324,0.521-0.708,0.806c-0.392,0.288-0.697,0.492-0.902,0.628c-0.05,0.031-0.097,0.059-0.142,0.085
								c-0.146,0.084-0.268,0.143-0.368,0.173c-0.131,0.04-0.214,0.053-0.265,0.036l-0.223-0.007
								c-0.174,0.02-0.27,0.021-0.287,0.005l-0.118,0.041c-0.016,0.018-0.033,0.033-0.056,0.046c-0.066,0.038-0.166,0.057-0.3,0.06
								c-0.179,0.005-0.364,0.014-0.569,0.023c-0.173,0.001-0.286-0.015-0.34-0.056l-0.111-0.098l0.005-0.12
								c0.011-0.052-0.066-0.105-0.228-0.156c-0.121-0.074-0.272-0.158-0.449-0.245s-0.344-0.206-0.496-0.353
								c-0.082-0.078-0.246-0.227-0.494-0.444c-0.252-0.222-0.504-0.454-0.768-0.708c-0.258-0.247-0.485-0.467-0.69-0.664
								c-0.204-0.196-0.308-0.316-0.311-0.36c-0.008-0.05-0.035-0.159-0.07-0.328s-0.134-0.273-0.296-0.306
								c-0.336-0.099-0.609-0.086-0.82,0.036c-0.023,0.014-0.046,0.028-0.068,0.045c-0.096,0.073-0.196,0.194-0.32,0.355
								c-0.118,0.167-0.183,0.312-0.183,0.438c0.003,0.106,0.151,0.219,0.429,0.329c0.282,0.115,0.517,0.268,0.716,0.46
								c0.058,0.056,0.181,0.174,0.367,0.354c0.193,0.186,0.403,0.389,0.638,0.613c0.233,0.225,0.485,0.457,0.756,0.707
								c0.27,0.249,0.541,0.479,0.827,0.692c0.28,0.207,0.552,0.375,0.808,0.506c0.255,0.131,0.44,0.195,0.574,0.199
								c0.229-0.007,0.526-0.033,0.888-0.08c0.368-0.041,0.758-0.123,1.184-0.243c0.427-0.12,0.845-0.289,1.254-0.498
								c0.069-0.036,0.138-0.073,0.205-0.112c0.337-0.194,0.651-0.433,0.938-0.71c0.662-0.662,1.114-1.184,1.354-1.556
								c0.233-0.378,0.29-0.636,0.177-0.786c-0.141-0.135-0.302-0.249-0.478-0.346c-0.195-0.094-0.305-0.157-0.353-0.183
								c-0.018-0.018-0.135-0.13-0.363-0.35c-0.228-0.219-0.473-0.455-0.742-0.714c-0.269-0.259-0.526-0.507-0.771-0.743
								c-0.24-0.23-0.392-0.376-0.45-0.433c-0.064-0.135-0.154-0.315-0.312-0.54c-0.145-0.222-0.225-0.383-0.247-0.487
								c-0.062-0.081-0.232-0.171-0.505-0.257C172.659,133.598,172.476,133.577,172.37,133.621"/>
							<path fill="#878787" d="M192.732,131.122c-0.163,0.163-0.337,0.325-0.521,0.484
								C192.381,131.468,192.553,131.304,192.732,131.122 M187.805,130.985c0.212,0.073,0.325,0.104,0.337,0.098
								c0.002-0.001,0.001-0.003-0.002-0.007c-0.006-0.005-0.111-0.034-0.316-0.086
								C187.817,130.988,187.811,130.987,187.805,130.985 M193.01,127.428c0.193,0.186,0.356,0.406,0.487,0.655
								c0.12,0.2,0.219,0.44,0.289,0.715c0.069,0.275,0.03,0.56-0.119,0.853c-0.111,0.288-0.244,0.555-0.42,0.791
								c-0.171,0.242-0.323,0.447-0.462,0.627c-0.018,0.018-0.035,0.036-0.053,0.054c0.119-0.12,0.231-0.241,0.338-0.363
								c0.234-0.252,0.432-0.519,0.587-0.806c0.154-0.288,0.222-0.588,0.2-0.899c0.021-0.291-0.026-0.533-0.142-0.728
								c-0.121-0.201-0.221-0.368-0.303-0.51C193.286,127.674,193.152,127.544,193.01,127.428 M186.515,127.646
								c-0.038,0.022-0.086,0.055-0.145,0.097c-0.11,0.092-0.226,0.229-0.332,0.408c-0.113,0.182-0.203,0.396-0.253,0.649
								c-0.049,0.244-0.022,0.509,0.097,0.79c0.086,0.312,0.261,0.562,0.517,0.746s0.511,0.326,0.75,0.431
								c0.238,0.099,0.461,0.172,0.656,0.219c-0.073-0.024-0.157-0.056-0.254-0.091c-0.42-0.145-0.866-0.48-1.32-1.001
								c-0.225-0.258-0.34-0.524-0.333-0.798c0.007-0.274,0.068-0.517,0.177-0.724c0.136-0.285,0.307-0.537,0.526-0.763
								C186.581,127.612,186.553,127.624,186.515,127.646 M186.535,125.995c-0.023,0.013-0.051,0.038-0.082,0.071
								c-0.065,0.083-0.19,0.191-0.369,0.331c-0.18,0.139-0.323,0.24-0.431,0.302c-0.081,0.047-0.219,0.144-0.409,0.281
								c-0.193,0.147-0.396,0.337-0.598,0.579c-0.208,0.236-0.388,0.512-0.544,0.827c-0.152,0.321-0.196,0.653-0.127,0.991
								c0.162,0.645,0.495,1.234,1.001,1.763c0.505,0.527,1.248,0.88,2.241,1.045c0.985,0.179,1.951,0.152,2.894-0.095
								c0.547-0.144,1.06-0.355,1.541-0.633c0.349-0.201,0.68-0.437,0.997-0.707c0.331-0.316,0.552-0.634,0.646-0.948
								c0.094-0.315,0.114-0.598,0.069-0.868c-0.058-0.264-0.144-0.492-0.262-0.668c-0.123-0.181-0.188-0.306-0.205-0.385
								c-0.099-0.115-0.243-0.203-0.429-0.257c-0.193-0.061-0.334-0.061-0.428-0.006c-0.122,0.07-0.23,0.151-0.329,0.244
								c-0.092,0.099-0.12,0.187-0.077,0.27c-0.022,0.04-0.003,0.102,0.06,0.191c0.062,0.091,0.116,0.185,0.175,0.294
								c0.055,0.104,0.103,0.212,0.143,0.314c0.048,0.107,0.079,0.18,0.101,0.221c-0.007,0.076-0.031,0.188-0.065,0.353
								c-0.035,0.164-0.115,0.346-0.229,0.538c-0.12,0.195-0.288,0.408-0.506,0.625c-0.142,0.149-0.312,0.281-0.505,0.394
								c-0.089,0.051-0.183,0.098-0.279,0.14c-0.647,0.293-1.443,0.42-2.416,0.378c-0.966-0.036-1.768-0.329-2.416-0.892
								c-0.312-0.278-0.495-0.568-0.549-0.87c-0.061-0.308-0.052-0.601,0.019-0.875c0.071-0.275,0.177-0.517,0.319-0.733
								c0.142-0.217,0.252-0.371,0.323-0.457c0.076-0.073,0.197-0.16,0.378-0.265c0.037-0.021,0.077-0.044,0.12-0.067
								c0.248-0.135,0.523-0.275,0.83-0.407c0.293-0.133,0.577-0.243,0.828-0.335c0.258-0.085,0.416-0.141,0.476-0.166
								c0.147-0.004,0.299,0.007,0.443,0.032c0.157,0.026,0.281,0.062,0.373,0.108c0.094,0.009,0.218,0.055,0.357,0.136
								c0.139,0.082,0.263,0.118,0.379,0.105c0.207,0.033,0.382,0.004,0.536-0.076c0.148-0.085,0.23-0.142,0.234-0.18
								c0.024-0.06,0.011-0.187-0.047-0.388c-0.051-0.195-0.204-0.332-0.458-0.41c-0.163-0.032-0.41-0.051-0.754-0.051
								c-0.326,0-0.691,0.012-1.076,0.036c-0.385,0.025-0.718,0.046-1.015,0.073c-0.296,0.027-0.477,0.041-0.539,0.042
								c-0.146,0.047-0.236,0.063-0.267,0.045C186.59,125.975,186.566,125.977,186.535,125.995 M186.005,125.821
								c0.433-0.124,0.871-0.242,1.327-0.344c0.351-0.067,0.738-0.121,1.162-0.149c0.418-0.034,0.8-0.02,1.134,0.031
								c0.668,0.145,1.12,0.289,1.361,0.437c0.235,0.144,0.357,0.271,0.354,0.373c-0.043,0.187-0.086,0.301-0.128,0.343
								l-0.115,0.139c0.08-0.027,0.166-0.068,0.261-0.123c0.162-0.094,0.228-0.176,0.195-0.247c-0.016-0.1-0.135-0.256-0.357-0.47
								c-0.222-0.213-0.59-0.37-1.104-0.47c-0.546-0.089-1.087-0.11-1.633-0.075c-0.539,0.042-0.96,0.096-1.273,0.178
								c-0.131,0.03-0.274,0.068-0.425,0.11c-0.145,0.047-0.271,0.083-0.374,0.107C186.252,125.696,186.126,125.751,186.005,125.821
								"/>
							<path fill="#878787" d="M206,115.59c0.005,0.087-0.035,0.174-0.113,0.264c-0.098,0.219-0.273,0.393-0.517,0.533
								c-0.135,0.078-0.317,0.173-0.558,0.294c-0.234,0.127-0.471,0.254-0.693,0.382s-0.412,0.238-0.58,0.335
								c-0.17,0.098-0.265,0.162-0.268,0.2c0.724,0.697,1.375,1.302,1.963,1.828c0.257,0.247,0.51,0.479,0.757,0.697
								c0.254,0.223,0.483,0.423,0.683,0.605c0.199,0.182,0.357,0.333,0.492,0.463c0.129,0.124,0.198,0.191,0.204,0.196
								c0.076,0.073,0.12,0.146,0.149,0.238l0.007,0.131c0.081-0.046,0.12-0.114,0.115-0.201c0.012-0.052-0.019-0.133-0.086-0.239
								c-0.066-0.104-0.201-0.234-0.403-0.388c-0.181-0.174-0.469-0.44-0.856-0.793c-0.388-0.352-0.773-0.713-1.154-1.079
								c-0.374-0.36-0.713-0.687-0.999-0.961c-0.292-0.282-0.45-0.434-0.474-0.456c-0.059-0.056-0.027-0.12,0.095-0.189
								c0.04-0.023,0.162-0.094,0.364-0.21c0.202-0.117,0.413-0.247,0.632-0.401c0.224-0.148,0.429-0.284,0.625-0.406
								c0.197-0.122,0.319-0.211,0.371-0.267c0.089-0.143,0.157-0.263,0.2-0.368C205.996,115.709,206.009,115.639,206,115.59
								 M204.235,115.214c-0.046,0.027-0.091,0.055-0.134,0.086c-0.137,0.106-0.25,0.216-0.344,0.324
								c-0.087,0.113-0.158,0.19-0.214,0.241c-0.092,0.098-0.25,0.207-0.466,0.332s-0.392,0.226-0.526,0.304
								c-0.103,0.068-0.191,0.138-0.269,0.21c-0.075,0.052-0.17,0.116-0.292,0.186c-0.122,0.07-0.235,0.136-0.345,0.199
								c-0.128,0.074-0.383,0.212-0.748,0.423c-0.369,0.205-0.761,0.421-1.178,0.644c-0.417,0.222-0.792,0.421-1.135,0.602
								c-0.343,0.179-0.545,0.287-0.612,0.326c-0.148,0.086-0.22,0.163-0.219,0.226c0.001,0.063,0.032,0.135,0.101,0.221
								c0.088,0.084,0.282,0.116,0.596,0.106c0.313-0.01,0.513-0.026,0.604-0.042c0.058-0.006,0.163-0.041,0.299-0.119
								c0.141-0.072,0.282-0.153,0.443-0.238c0.161-0.084,0.303-0.166,0.438-0.244c0.136-0.079,0.211-0.13,0.232-0.151
								c0.079-0.091,0.13-0.166,0.137-0.232c0.012-0.061,0.136-0.16,0.379-0.3c0.094-0.055,0.198-0.07,0.305-0.05
								s0.218,0.064,0.333,0.123c0.121,0.065,0.236,0.133,0.337,0.21c0.107,0.083,0.203,0.144,0.301,0.196
								c0.092,0.046,0.268,0.206,0.529,0.478c0.266,0.278,0.544,0.576,0.845,0.907c0.294,0.325,0.589,0.66,0.882,0.994
								c0.294,0.334,0.507,0.581,0.631,0.742c0.254,0.348,0.509,0.552,0.778,0.613c0.269,0.061,0.466,0.064,0.597,0.023
								c0.032-0.011,0.063-0.026,0.095-0.044c0.092-0.053,0.18-0.132,0.271-0.238c0.116-0.148,0.196-0.258,0.211-0.338
								c0.024-0.059-0.009-0.112-0.094-0.152c-0.092-0.047-0.196-0.085-0.32-0.131l-0.464-0.218l-3.823-3.678l0.128-0.074
								l0.123-0.08l0.123-0.079c0.141-0.072,0.253-0.11,0.329-0.119c0.072-0.014,0.192-0.065,0.354-0.158
								c0.176-0.102,0.271-0.156,0.271-0.175c0.009-0.014,0.052-0.066,0.13-0.156c0.129-0.083,0.272-0.184,0.431-0.302
								c0.027-0.019,0.055-0.037,0.083-0.053c0.139-0.08,0.283-0.125,0.433-0.137c0.135-0.021,0.229-0.045,0.287-0.079
								c0.014-0.008,0.025-0.017,0.036-0.026c0.043-0.052,0.166-0.141,0.365-0.282c0.214-0.168,0.311-0.324,0.281-0.478
								c-0.03-0.153-0.252-0.305-0.665-0.453c-0.165-0.076-0.337-0.085-0.521-0.033
								C204.455,115.103,204.341,115.153,204.235,115.214"/>
							<path fill="#878787" d="M225.007,111.515c0.081,0.081,0.133,0.122,0.151,0.125c0.024,0.007,0.036,0.01,0.039,0.008
								c0.005-0.003-0.019-0.018-0.067-0.045C225.086,111.571,225.044,111.542,225.007,111.515 M223.401,111.558
								c-0.111,0.064-0.151,0.145-0.12,0.238l0.165,0.003c0.078-0.028,0.173-0.083,0.288-0.149s0.223-0.119,0.315-0.164
								c0.1-0.04,0.153-0.071,0.181-0.086c0.077-0.009,0.199-0.016,0.377-0.011c0.173,0,0.279,0.02,0.326,0.064
								c0.02,0.02,0.046,0.04,0.073,0.061c-0.029-0.031-0.062-0.066-0.101-0.108c-0.146-0.141-0.36-0.18-0.647-0.104
								c-0.306,0.06-0.548,0.128-0.74,0.203C223.473,111.521,223.434,111.539,223.401,111.558 M219.885,108.987l3.108,2.876
								l0.146-0.12l-0.12-0.012l-0.036-0.024l-0.064-0.052c-0.068-0.014-0.259-0.166-0.583-0.456
								c-0.311-0.289-0.657-0.592-1.035-0.914L219.885,108.987 M216.882,108.165c-0.317,0.183-0.522,0.319-0.601,0.409l2.771-1.532
								c-0.03,0.029-0.054,0.062-0.069,0.099c-0.041,0.096-0.1,0.175-0.163,0.239c-0.052,0.075-0.079,0.163-0.102,0.266
								c-0.018,0.108-0.193,0.282-0.517,0.531c-0.24,0.159-0.445,0.292-0.621,0.393c-0.068,0.04-0.132,0.074-0.191,0.104
								c-0.208,0.111-0.41,0.219-0.605,0.322c-0.08,0.046-0.194,0.104-0.354,0.178c-0.084,0.039-0.157,0.077-0.224,0.116
								c-0.066,0.038-0.127,0.077-0.182,0.118c-0.109,0.081-0.201,0.17-0.262,0.278c-0.067,0.101-0.058,0.204,0.022,0.301
								c0.053,0.114,0.156,0.162,0.307,0.129c0.149-0.033,0.314-0.092,0.483-0.189c0.175-0.092,0.33-0.182,0.485-0.271
								c0.142-0.082,0.254-0.129,0.332-0.138c0.387,0.02,0.776,0.217,1.163,0.589c0.093,0.089,0.299,0.277,0.609,0.556
								c0.312,0.279,0.653,0.577,1.014,0.892c0.365,0.32,0.682,0.614,0.969,0.89c0.285,0.275,0.443,0.427,0.479,0.46
								c0.047,0.109,0.089,0.21,0.117,0.311c0.028,0.101-0.02,0.209-0.14,0.324c-0.046,0.044-0.093,0.08-0.142,0.108
								c-0.055,0.032-0.113,0.054-0.175,0.066c-0.08,0.02-0.163,0.051-0.244,0.098c-0.03,0.017-0.06,0.036-0.09,0.058
								c-0.053,0.031-0.098,0.093-0.12,0.196c-0.028,0.098-0.05,0.191-0.059,0.286l-0.014,0.269l0.105,0.101
								c0.071,0.001,0.193-0.052,0.371-0.155c0.094-0.054,0.202-0.121,0.326-0.203c0.354-0.231,0.652-0.422,0.896-0.562
								c0.217-0.125,0.459-0.255,0.727-0.392c0.269-0.137,0.51-0.258,0.729-0.359c0.183-0.067,0.366-0.154,0.556-0.264
								c0.037-0.021,0.075-0.045,0.114-0.068c0.236-0.136,0.353-0.284,0.354-0.448c0.021-0.147,0.002-0.289-0.056-0.418
								c-0.064-0.134-0.173-0.197-0.314-0.188c-0.152,0.003-0.301,0.047-0.448,0.132c-0.056,0.033-0.112,0.071-0.168,0.116
								c-0.01,0.009-0.021,0.016-0.034,0.024c-0.063,0.037-0.169,0.062-0.313,0.078c-0.161,0.022-0.292,0.052-0.359,0.091
								c-0.088,0.051-0.175,0.155-0.252,0.298c-0.071,0.132-0.138,0.216-0.204,0.255c-0.007,0.003-0.013,0.006-0.019,0.009
								c-0.055,0.031-0.129,0.012-0.217-0.063c-0.084-0.069-0.178-0.149-0.278-0.226c-0.108-0.082-0.208-0.168-0.296-0.253
								c-0.094-0.09-0.157-0.151-0.204-0.196l-2.794-2.689c-0.111-0.106-0.193-0.186-0.24-0.23
								c-0.053-0.051-0.054-0.114-0.001-0.188c0.07-0.067,0.149-0.126,0.236-0.177c0.088-0.05,0.185-0.093,0.29-0.127
								c0.091-0.017,0.256-0.076,0.502-0.182c0.07-0.028,0.132-0.058,0.186-0.088c0.14-0.081,0.225-0.171,0.257-0.275
								c0.056-0.113,0.112-0.235,0.157-0.369c0.037-0.13,0.001-0.217-0.123-0.253c-0.214-0.102-0.455-0.106-0.732-0.018
								c-0.131,0.04-0.236,0.064-0.319,0.077l-0.063-0.072c-0.002-0.043,0.122-0.142,0.371-0.287
								c0.013-0.007,0.024-0.014,0.036-0.021c0.223-0.129,0.418-0.16,0.575-0.089c0.077,0.054,0.143,0.107,0.195,0.158l0.14,0.135
								l0.129,0.124c-0.06-0.119-0.133-0.221-0.208-0.294c-0.059-0.057-0.136-0.111-0.228-0.157
								c-0.092-0.046-0.185-0.074-0.268-0.071c-0.07-0.005-0.142,0.02-0.224,0.066c-0.063,0.037-0.126,0.067-0.186,0.095
								c0.062-0.059,0.086-0.097,0.066-0.116c-0.029-0.028-0.12-0.012-0.272,0.049c-0.049,0.017-0.09,0.035-0.126,0.055
								c-0.021,0.012-0.038,0.023-0.054,0.036c-0.425,0.217-0.816,0.42-1.177,0.62C217.54,107.811,217.198,107.991,216.882,108.165"
								/>
							<path fill="#878787" d="M239.516,104.254c-0.028,0.024-0.058,0.049-0.087,0.073
								C239.458,104.303,239.487,104.279,239.516,104.254 M242.046,99.414l-0.011,0.115l0.107,0.072
								c0.031,0.01,0.09,0.003,0.175-0.02L242.046,99.414 M233.889,100.263c-0.145,0.173-0.27,0.354-0.371,0.547
								c-0.094,0.18-0.164,0.373-0.202,0.584c-0.039,0.211-0.022,0.426,0.041,0.633c0.15,0.435,0.454,0.8,0.923,1.105
								c0.475,0.311,0.908,0.511,1.319,0.615c0.213,0.039,0.447,0.057,0.686,0.036c0.244-0.014,0.471-0.046,0.68-0.104
								c0.216-0.052,0.4-0.114,0.552-0.165c0.094-0.032,0.162-0.063,0.21-0.091c0.033-0.02,0.058-0.038,0.071-0.054
								c-0.001-0.053-0.101-0.077-0.312-0.062c-0.212,0.014-0.437,0.026-0.681,0.041c-0.116,0.014-0.258,0.032-0.425,0.048
								c-0.167,0.016-0.353,0.014-0.562-0.01c-0.207-0.033-0.437-0.099-0.688-0.206c-0.251-0.106-0.521-0.283-0.815-0.545
								c-0.33-0.214-0.536-0.465-0.624-0.747c-0.094-0.287-0.114-0.546-0.066-0.79C233.676,100.817,233.761,100.535,233.889,100.263
								 M238.67,103.253c-0.324,0.187-0.716,0.35-1.178,0.499c-0.46,0.149-0.945,0.232-1.446,0.25
								c-0.511,0.017-1.021-0.048-1.523-0.199c-0.503-0.151-0.934-0.452-1.302-0.888c-0.399-0.417-0.57-0.84-0.518-1.258
								c0.053-0.417,0.189-0.794,0.406-1.126c0.224-0.335,0.48-0.619,0.776-0.843c0.221-0.168,0.385-0.283,0.491-0.344
								c0.035-0.021,0.064-0.036,0.088-0.044c0.401-0.196,0.814-0.308,1.238-0.347c0.425-0.039,0.839-0.025,1.228,0.048
								c0.395,0.069,0.761,0.182,1.103,0.344c0.342,0.163,0.623,0.351,0.852,0.571c0.223,0.213,0.408,0.476,0.545,0.783
								c0.136,0.308,0.195,0.625,0.185,0.937c-0.018,0.316-0.097,0.624-0.252,0.911C239.213,102.84,238.98,103.074,238.67,103.253
								 M234.176,98.344c-0.064,0.037-0.026,0.072,0.115,0.103c0.023,0.022-0.107,0.116-0.397,0.283
								c-0.291,0.167-0.63,0.391-1.01,0.681c-0.384,0.285-0.728,0.609-1.048,0.966c-0.32,0.356-0.471,0.722-0.447,1.086
								c-0.02,0.398,0.068,0.815,0.281,1.259c0.214,0.444,0.526,0.849,0.933,1.208c0.405,0.359,0.902,0.64,1.482,0.845
								c0.574,0.2,1.237,0.266,1.978,0.199c0.769-0.093,1.454-0.254,2.062-0.479c0.405-0.155,0.765-0.321,1.08-0.502
								c0.153-0.089,0.297-0.182,0.429-0.279c0.405-0.296,0.703-0.613,0.895-0.948c0.184-0.332,0.284-0.642,0.292-0.925
								c-0.025-0.273-0.086-0.571-0.183-0.893c-0.098-0.322-0.229-0.625-0.398-0.914c-0.171-0.288-0.383-0.544-0.63-0.762
								c-0.254-0.223-0.511-0.397-0.785-0.536c-1.118-0.453-2.196-0.649-3.235-0.599c-0.493,0.024-0.887,0.071-1.187,0.136
								C234.29,98.299,234.215,98.322,234.176,98.344 M233.296,98.3l0.878-0.309c0.046-0.018,0.223-0.056,0.535-0.119
								c0.317-0.058,0.662-0.122,1.049-0.174c0.389-0.053,0.775-0.087,1.165-0.096c0.384-0.015,0.705,0.024,0.966,0.108
								c0.266,0.09,0.535,0.204,0.822,0.345c0.286,0.14,0.57,0.3,0.854,0.479c0.277,0.173,0.535,0.348,0.772,0.535
								c0.231,0.182,0.405,0.37,0.509,0.553c0.244,0.381,0.407,0.745,0.508,1.102c0.105,0.362,0.036,0.834-0.206,1.433
								c-0.138,0.304-0.298,0.586-0.489,0.849c-0.19,0.264-0.378,0.489-0.562,0.685c-0.197,0.208-0.389,0.398-0.58,0.564
								c0.359-0.304,0.683-0.617,0.979-0.929c0.264-0.287,0.504-0.606,0.724-0.967c0.225-0.355,0.334-0.707,0.348-1.047
								c0.014-0.34-0.063-0.674-0.211-0.993c-0.154-0.325-0.324-0.623-0.516-0.891c-0.197-0.273-0.398-0.499-0.6-0.681
								c-0.205-0.187-0.357-0.324-0.477-0.417c-0.11-0.044-0.307-0.129-0.576-0.243c-0.276-0.12-0.598-0.232-0.964-0.335
								c-0.373-0.108-0.774-0.184-1.203-0.232c-0.422-0.053-0.837-0.047-1.232,0.009c-0.403,0.09-0.756,0.167-1.056,0.242
								c-0.301,0.074-0.557,0.15-0.775,0.231C233.705,98.092,233.485,98.191,233.296,98.3"/>
							<path fill="#878787" d="M258.836,92.717l-0.767,0.812l0.142-0.082c0.021-0.012,0.104-0.077,0.216-0.187l0.133-0.122
								c0.036-0.048,0.08-0.11,0.133-0.185C258.758,92.871,258.803,92.791,258.836,92.717 M253.146,95.579l-0.082,0.201
								c-0.095,0.127-0.162,0.229-0.183,0.313l0.065,0.105l0.084,0.006l0.006-0.129l0.031-0.199
								C253.115,95.787,253.137,95.693,253.146,95.579 M258.558,91.951l0.239,0.23l-0.035-0.096l-0.076-0.073L258.558,91.951
								 M258.213,91.745l0.047,0.045L258.213,91.745 M251.809,93.48l0.014,0.262l0.115-0.201L251.809,93.48 M250.023,92.946
								c0.532,0.43,1.025,0.821,1.471,1.167c0.196,0.147,0.386,0.299,0.562,0.458c0.176,0.159,0.342,0.297,0.497,0.406
								c0.155,0.108,0.275,0.192,0.364,0.267c0.088,0.075,0.135,0.12,0.146,0.131l-0.895-0.86c-0.233-0.225-0.45-0.434-0.643-0.619
								c-0.199-0.191-0.297-0.305-0.299-0.349c-0.029-0.028-0.113-0.079-0.248-0.145c-0.134-0.067-0.267-0.143-0.394-0.223
								C250.395,93.118,250.204,93.038,250.023,92.946 M254.069,87.415c-0.013,0.07,0.04,0.184,0.173,0.332
								c0.12,0.147,0.269,0.331,0.446,0.543c0.183,0.218,0.403,0.451,0.666,0.705c0.263,0.252,0.532,0.511,0.808,0.776l2.051,1.974
								l-0.02-0.051l-0.056-0.085l-0.008-0.131l-0.041-0.166l-2.028-1.952C255.464,88.787,254.798,88.136,254.069,87.415
								 M252.85,87.363c-0.022,0.103-0.045,0.196-0.06,0.286c-0.026,0.204-0.064,0.343-0.116,0.418
								c-0.063,0.064-0.135,0.141-0.214,0.241c-0.08,0.1-0.088,0.186-0.042,0.25c0.069,0.067,0.245,0.164,0.527,0.28
								c0.283,0.115,0.479,0.263,0.609,0.44c0.063,0.062,0.209,0.212,0.437,0.44c0.232,0.235,0.47,0.484,0.712,0.759
								c0.242,0.274,0.474,0.528,0.694,0.76c0.22,0.233,0.359,0.378,0.418,0.434c0.045,0.127,0.121,0.263,0.229,0.408
								c0.102,0.139,0.115,0.266,0.041,0.382c-0.04,0.082-0.109,0.157-0.211,0.216c-0.021,0.012-0.045,0.024-0.068,0.035
								c-0.14,0.063-0.306,0.069-0.5,0.027c-0.201-0.027-0.371-0.055-0.509-0.083s-0.262-0.075-0.37-0.138
								c-0.116-0.049-0.22-0.106-0.304-0.158c-0.085-0.05-0.099-0.104-0.029-0.163l0.078-0.081l0.086-0.104l0.09-0.069
								c-0.306-0.004-0.593-0.009-0.865-0.022c-0.567-0.005-0.961-0.03-1.173-0.079c-0.114-0.006-0.347-0.052-0.678-0.132
								c-0.33-0.079-0.673-0.16-1.04-0.253c-0.368-0.093-0.704-0.179-1.035-0.258c-0.33-0.079-0.537-0.121-0.612-0.132
								c-0.203-0.008-0.454-0.062-0.758-0.157c-0.303-0.094-0.516-0.133-0.626-0.124l-0.229-0.065l-0.111-0.107l-0.016,0.037
								l-0.006,0.192c-0.046,0.081-0.155,0.225-0.334,0.427c-0.174,0.208-0.25,0.352-0.227,0.437c0.042,0.04,0.12,0.084,0.223,0.132
								c0.104,0.048,0.216,0.092,0.347,0.125c0.137,0.038,0.26,0.074,0.365,0.113c0.104,0.039,0.167,0.066,0.178,0.077
								c0.103,0.058,0.188,0.18,0.265,0.37c0.084,0.194,0.167,0.326,0.255,0.41c0.1,0.096,0.184,0.219,0.24,0.356
								c0.057,0.138,0.13,0.25,0.212,0.328c0.035,0.034,0.173,0.178,0.404,0.441c0.243,0.265,0.522,0.544,0.833,0.842
								c0.314,0.303,0.607,0.585,0.882,0.849c0.281,0.271,0.476,0.427,0.587,0.472c0.417,0.166,0.733,0.182,0.958,0.053
								c0.014-0.008,0.027-0.017,0.041-0.027c0.078-0.09,0.141-0.208,0.182-0.366c0.046-0.152,0.069-0.256,0.055-0.301
								c-0.032-0.072-0.142-0.125-0.345-0.145c-0.188-0.025-0.327-0.054-0.412-0.095c-0.035-0.033-0.146-0.131-0.317-0.285
								c-0.176-0.159-0.375-0.341-0.605-0.541c-0.224-0.195-0.44-0.394-0.64-0.585s-0.362-0.349-0.484-0.467
								c-0.185-0.218-0.327-0.396-0.416-0.534c-0.089-0.137-0.183-0.228-0.261-0.272c-0.01-0.001-0.018,0-0.025,0.004
								c-0.032,0.019-0.046,0.09-0.046,0.208l-0.043,0.24c-0.124-0.099-0.25-0.188-0.388-0.28c-0.101-0.077-0.194-0.157-0.271-0.239
								c-0.075-0.083-0.101-0.149-0.084-0.195c0.081-0.11,0.129-0.209,0.162-0.292c0.021-0.04,0.053-0.074,0.097-0.1
								c0.042-0.024,0.095-0.041,0.16-0.048c0.012,0.002,0.183,0.021,0.504,0.07c0.314,0.042,0.698,0.101,1.14,0.161
								c0.445,0.066,0.918,0.136,1.434,0.216s0.993,0.156,1.444,0.236c0.439,0.08,0.823,0.138,1.132,0.175
								c0.315,0.043,0.497,0.073,0.56,0.091l1.224,0.085c0.019-0.002,0.08,0.026,0.184,0.074c0.099,0.042,0.208,0.097,0.324,0.156
								c0.115,0.059,0.231,0.108,0.354,0.154c0.124,0.046,0.231,0.056,0.311,0.028c0.077-0.008,0.189-0.045,0.343-0.117
								c0.076-0.036,0.148-0.072,0.218-0.112c0.067-0.04,0.132-0.082,0.193-0.126c0.124-0.089,0.234-0.18,0.326-0.278
								c0.093-0.098,0.108-0.188,0.045-0.269c-0.08-0.161-0.276-0.308-0.59-0.443c-0.306-0.129-0.699-0.423-1.179-0.885
								c-0.229-0.22-0.471-0.475-0.744-0.768c-0.271-0.293-0.551-0.573-0.838-0.848c-0.28-0.27-0.525-0.516-0.74-0.734
								c-0.215-0.217-0.366-0.374-0.441-0.465c-0.14-0.198-0.227-0.364-0.271-0.5c-0.038-0.13-0.1-0.212-0.18-0.247l-0.179-0.067
								l-0.215-0.092L252.85,87.363 M247.162,90.557c0.432,0.011,0.877,0.034,1.332,0.077c0.425,0.034,0.903,0.09,1.433,0.163
								c0.534,0.078,1.075,0.162,1.64,0.268c0.569,0.122,1.003,0.195,1.298,0.241c0.295,0.045,0.497,0.082,0.614,0.113
								c0.191-0.002,0.288-0.013,0.303-0.021c-0.338-0.076-0.675-0.151-1.019-0.231c-0.312-0.072-0.618-0.138-0.938-0.206
								c-0.313-0.062-0.582-0.114-0.815-0.15c-0.227-0.031-0.496-0.083-0.783-0.141c-0.295-0.064-0.576-0.118-0.852-0.175
								c-0.289-0.049-0.54-0.093-0.767-0.125c-0.232-0.037-0.411-0.041-0.534-0.015c-0.125,0.026-0.234,0.044-0.325,0.061
								c-0.09,0.017-0.182,0.034-0.292,0.062C247.333,90.503,247.24,90.529,247.162,90.557"/>
						</g>
					</g>
				</g>
			</g>
		</g>
	</g>
</g>
</svg>
