<?xml version="1.0" encoding="utf-8"?>
<!-- Generator: Adobe Illustrator 15.0.2, SVG Export Plug-In . SVG Version: 6.00 Build 0)  -->
<!DOCTYPE svg PUBLIC "-//W3C//DTD SVG 1.1//EN" "http://www.w3.org/Graphics/SVG/1.1/DTD/svg11.dtd">
<svg version="1.1" id="Calque_1" xmlns="http://www.w3.org/2000/svg" xmlns:xlink="http://www.w3.org/1999/xlink" x="0px" y="0px"
	 width="2500px" height="800px" viewBox="0 0 2500 800" enable-background="new 0 0 2500 800" xml:space="preserve">
<rect x="0" y="0" fill="#99BBC1" width="2500" height="800"/>
<g>
	<g>
		<rect x="-12.892" y="683.775" fill="#99BBC1" width="2511.153" height="46.659"/>
		<path fill="#98BAC0" d="M-16.191,682.757H2498.26v46.656H-16.191C-16.191,713.86-16.191,698.308-16.191,682.757z"/>
		<path fill="#98BAC0" d="M-19.491,681.733H2498.26v46.659H-19.491C-19.491,712.842-19.491,697.287-19.491,681.733z"/>
		<path fill="#97B9BF" d="M-22.787,680.714h2521.048v46.658H-22.787C-22.787,711.817-22.787,696.265-22.787,680.714z"/>
		<path fill="#97B9BF" d="M-26.089,679.691H2498.26v46.658H-26.089C-26.089,710.799-26.089,695.244-26.089,679.691z"/>
		<path fill="#96B8BE" d="M-29.386,678.673H2498.26v46.656H-29.386C-29.386,709.776-29.386,694.224-29.386,678.673z"/>
		<path fill="#96B8BE" d="M-32.685,677.649h2530.946v46.657H-32.685C-32.685,708.756-32.685,693.202-32.685,677.649z"/>
		<path fill="#95B7BD" d="M-35.985,676.63h2534.246v46.656H-35.985C-35.985,707.733-35.985,692.181-35.985,676.63z"/>
		<path fill="#95B7BD" d="M-39.284,675.606H2498.26v46.659H-39.284C-39.284,706.714-39.284,691.159-39.284,675.606z"/>
		<path fill="#94B6BC" d="M-42.582,674.588h2540.843v46.655H-42.582C-42.582,705.691-42.582,690.139-42.582,674.588z"/>
		<path fill="#94B5BB" d="M-45.88,673.565h2544.141v46.657H-45.88C-45.88,704.672-45.88,689.118-45.88,673.565z"/>
		<path fill="#93B5BB" d="M-49.182,672.545H2498.26v46.657H-49.182C-49.182,703.649-49.182,688.096-49.182,672.545z"/>
		<path fill="#93B4BA" d="M-52.478,671.522h2550.739v46.659H-52.478C-52.478,702.63-52.478,687.075-52.478,671.522z"/>
		<path fill="#92B4BA" d="M-55.781,670.504h2554.042v46.655H-55.781C-55.781,701.607-55.781,686.055-55.781,670.504z"/>
		<path fill="#92B3B9" d="M-59.076,669.479H2498.26v46.659H-59.076C-59.076,700.588-59.076,685.034-59.076,669.479z"/>
		<path fill="#91B3B9" d="M-62.374,668.459h2560.635v46.658H-62.374C-62.374,699.564-62.374,684.012-62.374,668.459z"/>
		<path fill="#91B2B8" d="M-65.674,667.438h2563.935v46.658H-65.674C-65.674,698.546-65.674,682.991-65.674,667.438z"/>
		<path fill="#90B2B8" d="M-68.975,666.416H2498.26v46.659H-68.975C-68.975,697.523-68.975,681.969-68.975,666.416z"/>
		<path fill="#90B1B7" d="M-72.27,665.396h2570.531v46.658H-72.27C-72.27,696.503-72.27,680.948-72.27,665.396z"/>
		<path fill="#8FB0B6" d="M-75.573,664.375h2573.834v46.658H-75.573C-75.573,695.48-75.573,679.928-75.573,664.375z"/>
		<path fill="#8FB0B6" d="M-78.871,663.354H2498.26v46.659H-78.871C-78.871,694.462-78.871,678.905-78.871,663.354z"/>
		<path fill="#8EAFB5" d="M-82.17,662.332h2580.431v46.658H-82.17C-82.17,693.438-82.17,677.885-82.17,662.332z"/>
		<path fill="#8EAFB5" d="M-85.467,661.312h2583.728v46.658H-85.467C-85.467,692.419-85.467,676.864-85.467,661.312z"/>
		<path fill="#8DAEB4" d="M-88.77,660.29h2587.03v46.659H-88.77C-88.77,691.396-88.77,675.844-88.77,660.29z"/>
		<path fill="#8DAEB4" d="M-92.068,659.27H2498.26v46.657H-92.068C-92.068,690.375-92.068,674.821-92.068,659.27z"/>
		<path fill="#8CADB3" d="M-95.365,658.248h2593.626v46.658H-95.365C-95.365,689.354-95.365,673.802-95.365,658.248z"/>
		<path fill="#8CADB3" d="M-98.665,657.227h2596.926v46.659H-98.665C-98.665,688.334-98.665,672.779-98.665,657.227z"/>
		<path fill="#8BACB2" d="M-101.963,656.206h2600.224v46.657H-101.963C-101.963,687.312-101.963,671.76-101.963,656.206z"/>
		<path fill="#8AABB1" d="M-105.261,655.184H2498.26v46.659H-105.261C-105.261,686.29-105.261,670.737-105.261,655.184z"/>
		<path fill="#8AABB1" d="M-108.56,654.163h2606.821v46.659H-108.56C-108.56,685.27-108.56,669.718-108.56,654.163z"/>
		<path fill="#89AAB0" d="M-111.862,653.143h2610.123v46.658H-111.862C-111.862,684.248-111.862,668.695-111.862,653.143z"/>
		<path fill="#89AAB0" d="M-115.16,652.122h2613.421v46.657H-115.16C-115.16,683.228-115.16,667.677-115.16,652.122z"/>
		<path fill="#88A9AF" d="M-118.457,651.1h2616.718v46.658H-118.457C-118.457,682.205-118.457,666.652-118.457,651.1z"/>
		<path fill="#88A9AF" d="M-121.758,650.079H2498.26v46.658H-121.758C-121.758,681.185-121.758,665.634-121.758,650.079z"/>
		<path fill="#87A8AE" d="M-125.055,649.058h2623.316v46.659H-125.055C-125.055,680.164-125.055,664.611-125.055,649.058z"/>
		<path fill="#87A8AE" d="M-128.356,648.036h2626.617v46.659H-128.356C-128.356,679.142-128.356,663.591-128.356,648.036z"/>
		<path fill="#86A7AD" d="M-131.655,647.016h2629.916v46.658H-131.655C-131.655,678.121-131.655,662.568-131.655,647.016z"/>
		<path fill="#86A6AC" d="M-134.955,645.995H2498.26v46.658H-134.955C-134.955,677.101-134.955,661.55-134.955,645.995z"/>
		<path fill="#85A6AC" d="M-138.25,644.974h2636.511v46.659H-138.25C-138.25,676.08-138.25,660.525-138.25,644.974z"/>
		<path fill="#85A5AB" d="M-141.55,643.952h2639.811v46.658H-141.55C-141.55,675.058-141.55,659.507-141.55,643.952z"/>
		<path fill="#84A5AB" d="M-144.849,642.932H2498.26v46.658H-144.849C-144.849,674.037-144.849,658.484-144.849,642.932z"/>
		<path fill="#84A4AA" d="M-148.148,641.91h2646.409v46.657H-148.148C-148.148,673.015-148.148,657.465-148.148,641.91z"/>
		<path fill="#83A4AA" d="M-151.449,640.89h2649.71v46.657h-2649.71C-151.449,671.994-151.449,656.441-151.449,640.89z"/>
		<path fill="#83A3A9" d="M-154.75,639.867h2653.01v46.659H-154.75C-154.75,670.974-154.75,655.423-154.75,639.867z"/>
		<path fill="#82A3A9" d="M-158.046,638.847h2656.307v46.659H-158.046C-158.046,669.952-158.046,654.399-158.046,638.847z"/>
		<path fill="#82A2A8" d="M-161.345,637.826h2659.606v46.657H-161.345C-161.345,668.931-161.345,653.381-161.345,637.826z"/>
		<path fill="#81A1A7" d="M-164.645,636.805H2498.26v46.658H-164.645C-164.645,667.91-164.645,652.357-164.645,636.805z"/>
		<path fill="#81A1A7" d="M-167.941,635.783h2666.202v46.659H-167.941C-167.941,666.89-167.941,651.338-167.941,635.783z"/>
		<path fill="#80A0A6" d="M-171.242,634.763h2669.503v46.658H-171.242C-171.242,665.868-171.242,650.315-171.242,634.763z"/>
		<path fill="#80A0A6" d="M-174.542,633.742h2672.803v46.657H-174.542C-174.542,664.847-174.542,649.297-174.542,633.742z"/>
		<path fill="#7F9FA5" d="M-177.841,632.72h2676.102v46.659H-177.841C-177.841,663.825-177.841,648.272-177.841,632.72z"/>
		<path fill="#7F9FA5" d="M-181.138,631.699h2679.399v46.658H-181.138C-181.138,662.805-181.138,647.254-181.138,631.699z"/>
		<path fill="#7E9EA4" d="M-184.438,630.677h2682.699v46.66H-184.438C-184.438,661.784-184.438,646.229-184.438,630.677z"/>
		<path fill="#7E9EA4" d="M-187.738,629.656h2685.999v46.659H-187.738C-187.738,660.762-187.738,645.209-187.738,629.656z"/>
		<path fill="#7D9DA3" d="M-191.032,628.636h2689.293v46.658H-191.032C-191.032,659.741-191.032,644.188-191.032,628.636z"/>
		<path fill="#7C9CA2" d="M-194.335,627.614h2692.596v46.659H-194.335C-194.335,658.721-194.335,643.17-194.335,627.614z"/>
		<path fill="#7C9CA2" d="M-197.635,626.594H2498.26v46.658H-197.635C-197.635,657.698-197.635,642.146-197.635,626.594z"/>
		<path fill="#7B9BA1" d="M-200.931,625.572h2699.192v46.658H-200.931C-200.931,656.678-200.931,641.125-200.931,625.572z"/>
		<path fill="#7B9BA1" d="M-204.23,624.552h2702.491v46.658H-204.23C-204.23,655.657-204.23,640.104-204.23,624.552z"/>
		<path fill="#7A9AA0" d="M-207.531,623.53H2498.26v46.657H-207.531C-207.531,654.635-207.531,639.084-207.531,623.53z"/>
		<path fill="#7A9AA0" d="M-210.828,622.51h2709.089v46.658H-210.828C-210.828,653.614-210.828,638.062-210.828,622.51z"/>
		<path fill="#79999F" d="M-214.126,621.487h2712.387v46.659H-214.126C-214.126,652.594-214.126,637.04-214.126,621.487z"/>
		<path fill="#79999F" d="M-217.426,620.469h2715.687v46.659H-217.426C-217.426,651.572-217.426,636.02-217.426,620.469z"/>
		<path fill="#78989E" d="M-220.725,619.446h2718.986v46.657H-220.725C-220.725,650.552-220.725,635-220.725,619.446z"/>
		<path fill="#78979D" d="M-224.025,618.426h2722.286v46.658H-224.025C-224.025,649.53-224.025,633.978-224.025,618.426z"/>
		<path fill="#77979D" d="M-227.323,617.403h2725.584v46.658H-227.323C-227.323,648.51-227.323,632.956-227.323,617.403z"/>
		<path fill="#77969C" d="M-230.621,616.385h2728.882v46.655H-230.621C-230.621,647.488-230.621,631.936-230.621,616.385z"/>
		<path fill="#76969C" d="M-233.919,615.36h2732.18v46.659h-2732.18C-233.919,646.469-233.919,630.913-233.919,615.36z"/>
		<path fill="#76959B" d="M-237.223,614.342h2735.484v46.656H-237.223C-237.223,645.445-237.223,629.893-237.223,614.342z"/>
		<path fill="#75959B" d="M-240.52,613.319h2738.781v46.658H-240.52C-240.52,644.427-240.52,628.872-240.52,613.319z"/>
		<path fill="#75949A" d="M-243.819,612.299h2742.08v46.657h-2742.08C-243.819,643.404-243.819,627.852-243.819,612.299z"/>
		<path fill="#74949A" d="M-247.118,611.276h2745.379v46.659H-247.118C-247.118,642.384-247.118,626.829-247.118,611.276z"/>
		<path fill="#749399" d="M-250.416,610.258h2748.677v46.656H-250.416C-250.416,641.361-250.416,625.809-250.416,610.258z"/>
		<path fill="#739298" d="M-253.713,609.234h2751.974v46.659H-253.713C-253.713,640.343-253.713,624.788-253.713,609.234z"/>
		<path fill="#739298" d="M-257.011,608.215h2755.272v46.656H-257.011C-257.011,639.318-257.011,623.766-257.011,608.215z"/>
		<path fill="#729197" d="M-260.315,607.192H2498.26v46.658H-260.315C-260.315,638.3-260.315,622.745-260.315,607.192z"/>
		<path fill="#729197" d="M-263.614,606.173h2761.875v46.657H-263.614C-263.614,637.276-263.614,621.724-263.614,606.173z"/>
		<path fill="#719096" d="M-266.91,605.15h2765.171v46.657H-266.91C-266.91,636.257-266.91,620.702-266.91,605.15z"/>
		<path fill="#719096" d="M-270.21,604.131h2768.471v46.656H-270.21C-270.21,635.234-270.21,619.682-270.21,604.131z"/>
		<path fill="#708F95" d="M-273.511,603.107h2771.772v46.659H-273.511C-273.511,634.216-273.511,618.66-273.511,603.107z"/>
		<path fill="#708F95" d="M-276.807,602.089h2775.068v46.655H-276.807C-276.807,633.192-276.807,617.64-276.807,602.089z"/>
		<rect x="-280.107" y="601.065" fill="#6F8E94" width="2778.368" height="46.66"/>
	</g>
	<rect x="-280.107" y="601.065" fill="#E2E2E2" width="2778.368" height="46.66"/>
</g>
<g>
	<polygon fill="#4E5151" points="1225.079,536.338 1301.728,536.338 1337.653,601.421 1189.151,601.421 	"/>
	<path fill="#1D2120" d="M1082.793,319.306h361.218c10.163,0,18.479,8.313,18.479,18.479v196.57
		c0,10.164-8.315,18.481-18.479,18.481h-361.218c-10.164,0-18.481-8.317-18.481-18.481v-196.57
		C1064.313,327.621,1072.629,319.306,1082.793,319.306z"/>
	<rect x="1076.577" y="330.085" fill="#2D3E4F" width="373.646" height="189.752"/>
	<path fill="#808281" d="M1440.051,538.903c1.319,0,2.397-1.077,2.397-2.396c0-1.323-1.078-2.401-2.397-2.401
		c-1.322,0-2.399,1.078-2.399,2.401C1437.651,537.826,1438.729,538.903,1440.051,538.903z"/>
	<path fill="#808281" d="M1430.679,538.903c1.321,0,2.4-1.077,2.4-2.396c0-1.323-1.079-2.401-2.4-2.401s-2.399,1.078-2.399,2.401
		C1428.279,537.826,1429.357,538.903,1430.679,538.903z"/>
	<path fill="#808281" d="M1421.311,538.903c1.321,0,2.398-1.077,2.398-2.396c0-1.323-1.078-2.401-2.398-2.401
		c-1.323,0-2.4,1.078-2.4,2.401C1418.907,537.826,1419.987,538.903,1421.311,538.903z"/>
	<path fill="#808281" d="M1042.966,581.75h440.874c5.407,0,9.834,4.427,9.834,9.837l0,0c0,5.407-4.427,9.834-9.834,9.834h-440.874
		c-5.408,0-9.834-4.427-9.834-9.834l0,0C1033.132,586.177,1037.558,581.75,1042.966,581.75z"/>
	<path fill="#595959" d="M1194.511,581.75h289.329c5.407,0,9.834,4.427,9.834,9.837l0,0c0,5.407-4.427,9.834-9.834,9.834h-287.18
		L1194.511,581.75z"/>
</g>
<g>
	<polygon fill="#3E5568" points="1186.652,329.887 1257.743,329.887 1450.073,424.105 1450.073,519.637 1187.598,519.637 
		1171.896,375.894 	"/>
	<g>
		<g>
			<path fill="#E2E2E2" d="M976.416,539.735l25.312-122.303l-13.836-2.863l-11.477,55.45v26.548l16.74-80.885l3.297,0.682
				l-20.039,96.817v26.554H976.416z M951.115,592.271l13.836,2.864l11.466-55.4v-26.554l-16.739,80.887l-3.297-0.685l20.036-96.816
				V470.02L951.115,592.271z"/>
			<path fill="#E2E2E2" d="M1191.765,333.635l-5.265-13.112l-87.627,35.171v5.799l89.633-35.976l1.254,3.122l-90.887,36.479v5.799
				L1191.765,333.635z M1098.873,355.694l-92.893,37.285l5.266,13.112l87.627-35.174v-5.799l-89.635,35.979l-1.253-3.126
				l90.888-36.479V355.694z"/>
			<path fill="#FFCC00" d="M1211.248,363.957c7.643,0,13.875-6.231,13.875-13.875c0-7.641-6.232-13.875-13.875-13.875
				c-7.645,0-13.875,6.233-13.875,13.875C1197.373,357.724,1203.605,363.957,1211.248,363.957z"/>
			<path fill="#993333" d="M1169.299,285.019c2.429,0,4.41-1.982,4.41-4.41c0-2.429-1.981-4.411-4.41-4.411
				c-2.431,0-4.41,1.981-4.41,4.411C1164.889,283.037,1166.869,285.019,1169.299,285.019z"/>
			<path fill="#E2E2E2" d="M1169.299,280.609c4.431-2.674,9.114-4.66,13.966-5.998l18.429,22.587
				c18.406-0.685,38.359,10.452,50.72,30.078c-13.39,6.75-27.21,14.381-41.166,22.806c-13.956,8.43-27.142,17.104-39.353,25.813
				c-11.612-20.082-12.176-42.923-3-58.894l-11.407-26.828C1160.933,286.505,1164.87,283.284,1169.299,280.609z"/>
			<circle fill="#FFCC00" cx="997.28" cy="404.083" r="14.872"/>
			<path fill="#FFB000" d="M1166.904,312.314c5.891-8.641,21.095-17.324,31.707-18.894l3.083,3.776
				c-10.292,0.559-28.724,11.055-32.798,19.804L1166.904,312.314z"/>
			<path fill="#993333" d="M997.28,415.071c6.053,0,10.99-4.937,10.99-10.989c0-6.054-4.938-10.988-10.99-10.988
				c-6.052,0-10.99,4.936-10.99,10.988C986.289,410.135,991.227,415.071,997.28,415.071z"/>
		</g>
		<path fill="#993333" d="M961.972,565.82c19.551,0,35.401,15.852,35.401,35.4l0,0H926.57l0,0
			C926.57,581.672,942.42,565.82,961.972,565.82z"/>
	</g>
</g>
<g>
	<path fill="#993333" d="M1611.94,559.819L1611.94,559.819c6.862,0,12.426,5.563,12.426,12.425c0,6.864-5.562,12.43-12.426,12.43
		l0,0v-5.813l0,0c3.652,0,6.613-2.962,6.613-6.615c0-3.65-2.961-6.61-6.613-6.61l0,0V559.819z M1608.545,555.885
		c0.146,1.438,0.155,2.908,0.051,4.393c1.062-0.299,2.188-0.458,3.345-0.458v5.813c-3.655,0-6.612,2.96-6.612,6.61
		c0,3.653,2.957,6.615,6.612,6.615v5.813c-4.396,0-8.257-2.281-10.465-5.725c-8.033,11.675-21.748,20.935-35.69,20.935
		c-22.661,0-44.722-24.454-42.762-43.997H1608.545L1608.545,555.885z"/>
	<path fill="#FFB000" d="M1616.67,595.853c-5.322,2.901-11.567,5.341-18.49,7.189h-63.031c-6.924-1.851-13.169-4.288-18.49-7.189
		H1616.67z"/>
	<path fill="#688287" d="M1555.209,532.01c-16.396-57.825,32.903-62.521-5.58-132.213
		C1567.875,463.909,1515.981,477.902,1555.209,532.01z"/>
	<path fill="#E4F4F7" d="M1577.679,538.824c-12.523-44.165,25.133-47.754-4.261-100.979
		C1587.352,486.814,1547.718,497.503,1577.679,538.824z"/>
</g>
<path fill="#1D2120" d="M1493.66,591.587c0,5.407-4.424,9.834-9.833,9.834h-440.87c-5.409,0-9.835-4.427-9.835-9.834H1493.66z"/>
</svg>
